<svg xmlns="http://www.w3.org/2000/svg" viewBox="0 0 800 800" width="800" height="800">

<defs>
  <filter id="grain" x="0" y="0" width="100%" height="100%">
    <feTurbulence baseFrequency="0.85" numOctaves="2" stitchTiles="stitch" seed="3"></feTurbulence>
    <feColorMatrix values="0 0 0 0 0.16  0 0 0 0 0.12  0 0 0 0 0.08  0 0 0 0.05 0"></feColorMatrix>
  </filter>
  <filter id="soft" x="-10%" y="-10%" width="120%" height="120%">
    <feGaussianBlur stdDeviation="0.6"></feGaussianBlur>
  </filter>
  <radialGradient id="bowlShadow" cx="50%" cy="50%" r="50%">
    <stop offset="0%" stop-color="rgba(0,0,0,0)"></stop>
    <stop offset="85%" stop-color="rgba(0,0,0,0)"></stop>
    <stop offset="100%" stop-color="rgba(42,31,20,0.18)"></stop>
  </radialGradient>
  <radialGradient id="ambBroth" cx="50%" cy="40%" r="55%">
    <stop offset="0%" stop-color="#E8B870"></stop>
    <stop offset="100%" stop-color="#A87A3E"></stop>
  </radialGradient>
  <radialGradient id="misoBroth" cx="50%" cy="40%" r="55%">
    <stop offset="0%" stop-color="#D4A055"></stop>
    <stop offset="100%" stop-color="#7A4F1E"></stop>
  </radialGradient>
  <radialGradient id="redSauce" cx="50%" cy="40%" r="55%">
    <stop offset="0%" stop-color="#D86048"></stop>
    <stop offset="100%" stop-color="#8E2D1F"></stop>
  </radialGradient>
  <radialGradient id="lacquerSheen" cx="40%" cy="35%" r="60%">
    <stop offset="0%" stop-color="#5C3A28"></stop>
    <stop offset="100%" stop-color="#2A1810"></stop>
  </radialGradient>
</defs>
<rect width="800" height="800" fill="#F5EFE0"></rect>
<rect width="800" height="800" filter="url(#grain)"></rect>
<ellipse cx="400" cy="435.6" rx="332.8" ry="332.8" fill="rgba(42,31,20,0.12)" filter="url(#soft)"></ellipse>
<circle cx="400" cy="400" r="320" fill="#3E2418"></circle>
<circle cx="400" cy="400" r="305" fill="#5C3A1F"></circle>
<circle cx="400" cy="400" r="280" fill="#8B5E3C"></circle>
<circle cx="400" cy="400" r="262" fill="url(#ambBroth)"></circle>

<g transform="translate(330 350)">
  <circle r="55" fill="#F8F2E0" stroke="#F2DDB0" stroke-width="2"></circle>
  <circle cx="28.0" cy="0.0" r="9" fill="#8B5E3C"></circle><circle cx="17.5" cy="21.9" r="9" fill="#8B5E3C"></circle><circle cx="-6.2" cy="27.3" r="9" fill="#8B5E3C"></circle><circle cx="-25.2" cy="12.1" r="9" fill="#8B5E3C"></circle><circle cx="-25.2" cy="-12.1" r="9" fill="#8B5E3C"></circle><circle cx="-6.2" cy="-27.3" r="9" fill="#8B5E3C"></circle><circle cx="17.5" cy="-21.9" r="9" fill="#8B5E3C"></circle>
  <circle r="9" fill="#8B5E3C"></circle>
</g>

<g transform="translate(460 360)">
  <ellipse cx="0" cy="6" rx="58" ry="14" fill="rgba(0,0,0,0.2)"></ellipse>
  <ellipse rx="55" ry="42" fill="#5C3A1F"></ellipse>
  <ellipse rx="42" ry="32" fill="#8B5E3C" opacity="0.6"></ellipse>
  <path d="M-25 -10 L -18 -5 M-5 -18 L 0 -12 M14 -10 L 20 -5 M-30 10 L -22 15" stroke="#3E2418" stroke-width="2.5" stroke-linecap="round"></path>
</g>

<g transform="translate(380 470)">
  
    <ellipse cx="-30" cy="0" rx="14" ry="11" fill="#F2DDB0"></ellipse>
    <rect x="-35" y="5" width="10" height="22" rx="3" fill="#F8F2E0"></rect>
  
    <ellipse cx="-10" cy="-10" rx="14" ry="11" fill="#F2DDB0"></ellipse>
    <rect x="-15" y="-5" width="10" height="22" rx="3" fill="#F8F2E0"></rect>
  
    <ellipse cx="10" cy="-5" rx="14" ry="11" fill="#F2DDB0"></ellipse>
    <rect x="5" y="0" width="10" height="22" rx="3" fill="#F8F2E0"></rect>
  
    <ellipse cx="25" cy="5" rx="14" ry="11" fill="#F2DDB0"></ellipse>
    <rect x="20" y="10" width="10" height="22" rx="3" fill="#F8F2E0"></rect>
  
    <ellipse cx="-15" cy="15" rx="14" ry="11" fill="#F2DDB0"></ellipse>
    <rect x="-20" y="20" width="10" height="22" rx="3" fill="#F8F2E0"></rect>
  
</g>

<ellipse cx="500" cy="450" rx="18" ry="22" fill="#F5C53C" transform="rotate(15 500 450)"></ellipse>
<ellipse cx="525" cy="430" rx="18" ry="22" fill="#F5C53C" transform="rotate(-10 525 430)"></ellipse>
<ellipse cx="520" cy="475" rx="16" ry="20" fill="#E8C580" transform="rotate(25 520 475)"></ellipse>

<circle cx="280" cy="450" r="34" fill="#D4A55E" stroke="#A14A2A" stroke-width="1.5"></circle>
<circle cx="280" cy="450" r="25" fill="#D4A55E" opacity="0.5"></circle>

<g transform="translate(420 280)">
  <path d="M0 -20 L 8 -8 L 22 -10 L 12 4 L 18 18 L 0 12 L -18 18 L -12 4 L -22 -10 L -8 -8 Z" fill="#B83D2E"></path>
</g></svg>