<svg xmlns="http://www.w3.org/2000/svg" viewBox="0 0 800 800" width="800" height="800">

<defs>
  <filter id="grain" x="0" y="0" width="100%" height="100%">
    <feTurbulence baseFrequency="0.85" numOctaves="2" stitchTiles="stitch" seed="3"></feTurbulence>
    <feColorMatrix values="0 0 0 0 0.16  0 0 0 0 0.12  0 0 0 0 0.08  0 0 0 0.05 0"></feColorMatrix>
  </filter>
  <filter id="soft" x="-10%" y="-10%" width="120%" height="120%">
    <feGaussianBlur stdDeviation="0.6"></feGaussianBlur>
  </filter>
  <radialGradient id="bowlShadow" cx="50%" cy="50%" r="50%">
    <stop offset="0%" stop-color="rgba(0,0,0,0)"></stop>
    <stop offset="85%" stop-color="rgba(0,0,0,0)"></stop>
    <stop offset="100%" stop-color="rgba(42,31,20,0.18)"></stop>
  </radialGradient>
  <radialGradient id="ambBroth" cx="50%" cy="40%" r="55%">
    <stop offset="0%" stop-color="#E8B870"></stop>
    <stop offset="100%" stop-color="#A87A3E"></stop>
  </radialGradient>
  <radialGradient id="misoBroth" cx="50%" cy="40%" r="55%">
    <stop offset="0%" stop-color="#D4A055"></stop>
    <stop offset="100%" stop-color="#7A4F1E"></stop>
  </radialGradient>
  <radialGradient id="redSauce" cx="50%" cy="40%" r="55%">
    <stop offset="0%" stop-color="#D86048"></stop>
    <stop offset="100%" stop-color="#8E2D1F"></stop>
  </radialGradient>
  <radialGradient id="lacquerSheen" cx="40%" cy="35%" r="60%">
    <stop offset="0%" stop-color="#5C3A28"></stop>
    <stop offset="100%" stop-color="#2A1810"></stop>
  </radialGradient>
</defs>
<rect width="800" height="800" fill="#F5EFE0"></rect>
<rect width="800" height="800" filter="url(#grain)"></rect>
<ellipse cx="400" cy="427.6" rx="332.8" ry="228.8" fill="rgba(42,31,20,0.12)" filter="url(#soft)"></ellipse>
<rect x="80" y="180" width="640" height="440" fill="#3E2418" rx="20"></rect>
<rect x="96" y="196" width="608" height="408" fill="#5C3A1F" rx="14"></rect>

<rect x="112" y="212" width="340" height="376" fill="#F8F2E0" rx="8"></rect>
<rect x="464" y="212" width="224" height="180" fill="#F2DDB0" rx="8"></rect>
<rect x="464" y="404" width="224" height="184" fill="#DDE4C8" rx="8"></rect>

<ellipse cx="282.0" cy="400.0" rx="6.5" ry="4" fill="#F8F2E0" stroke="#F2DDB0" stroke-width="0.8" transform="rotate(0 282.0 400.0)"></ellipse><ellipse cx="270.9" cy="410.1" rx="6.5" ry="4" fill="#F8F2E0" stroke="#F2DDB0" stroke-width="0.8" transform="rotate(79 270.9 410.1)"></ellipse><ellipse cx="283.9" cy="378.9" rx="6.5" ry="4" fill="#F8F2E0" stroke="#F2DDB0" stroke-width="0.8" transform="rotate(158 283.9 378.9)"></ellipse><ellipse cx="297.8" cy="420.6" rx="6.5" ry="4" fill="#F8F2E0" stroke="#F2DDB0" stroke-width="0.8" transform="rotate(57 297.8 420.6)"></ellipse><ellipse cx="252.5" cy="394.8" rx="6.5" ry="4" fill="#F8F2E0" stroke="#F2DDB0" stroke-width="0.8" transform="rotate(136 252.5 394.8)"></ellipse><ellipse cx="310.3" cy="382.0" rx="6.5" ry="4" fill="#F8F2E0" stroke="#F2DDB0" stroke-width="0.8" transform="rotate(35 310.3 382.0)"></ellipse><ellipse cx="272.5" cy="435.5" rx="6.5" ry="4" fill="#F8F2E0" stroke="#F2DDB0" stroke-width="0.8" transform="rotate(114 272.5 435.5)"></ellipse><ellipse cx="263.7" cy="364.8" rx="6.5" ry="4" fill="#F8F2E0" stroke="#F2DDB0" stroke-width="0.8" transform="rotate(13 263.7 364.8)"></ellipse><ellipse cx="321.9" cy="414.6" rx="6.5" ry="4" fill="#F8F2E0" stroke="#F2DDB0" stroke-width="0.8" transform="rotate(92 321.9 414.6)"></ellipse><ellipse cx="240.4" cy="417.2" rx="6.5" ry="4" fill="#F8F2E0" stroke="#F2DDB0" stroke-width="0.8" transform="rotate(171 240.4 417.2)"></ellipse><ellipse cx="302.1" cy="357.0" rx="6.5" ry="4" fill="#F8F2E0" stroke="#F2DDB0" stroke-width="0.8" transform="rotate(70 302.1 357.0)"></ellipse><ellipse cx="296.9" cy="447.5" rx="6.5" ry="4" fill="#F8F2E0" stroke="#F2DDB0" stroke-width="0.8" transform="rotate(149 296.9 447.5)"></ellipse><ellipse cx="237.0" cy="373.9" rx="6.5" ry="4" fill="#F8F2E0" stroke="#F2DDB0" stroke-width="0.8" transform="rotate(48 237.0 373.9)"></ellipse><ellipse cx="334.8" cy="388.4" rx="6.5" ry="4" fill="#F8F2E0" stroke="#F2DDB0" stroke-width="0.8" transform="rotate(127 334.8 388.4)"></ellipse><ellipse cx="249.7" cy="445.9" rx="6.5" ry="4" fill="#F8F2E0" stroke="#F2DDB0" stroke-width="0.8" transform="rotate(26 249.7 445.9)"></ellipse><ellipse cx="274.5" cy="342.4" rx="6.5" ry="4" fill="#F8F2E0" stroke="#F2DDB0" stroke-width="0.8" transform="rotate(105 274.5 342.4)"></ellipse><ellipse cx="327.9" cy="438.7" rx="6.5" ry="4" fill="#F8F2E0" stroke="#F2DDB0" stroke-width="0.8" transform="rotate(4 327.9 438.7)"></ellipse><ellipse cx="220.2" cy="402.6" rx="6.5" ry="4" fill="#F8F2E0" stroke="#F2DDB0" stroke-width="0.8" transform="rotate(83 220.2 402.6)"></ellipse><ellipse cx="327.1" cy="355.1" rx="6.5" ry="4" fill="#F8F2E0" stroke="#F2DDB0" stroke-width="0.8" transform="rotate(162 327.1 355.1)"></ellipse><ellipse cx="279.0" cy="465.3" rx="6.5" ry="4" fill="#F8F2E0" stroke="#F2DDB0" stroke-width="0.8" transform="rotate(61 279.0 465.3)"></ellipse><ellipse cx="239.0" cy="348.5" rx="6.5" ry="4" fill="#F8F2E0" stroke="#F2DDB0" stroke-width="0.8" transform="rotate(140 239.0 348.5)"></ellipse><ellipse cx="350.1" cy="409.2" rx="6.5" ry="4" fill="#F8F2E0" stroke="#F2DDB0" stroke-width="0.8" transform="rotate(39 350.1 409.2)"></ellipse><ellipse cx="224.3" cy="440.2" rx="6.5" ry="4" fill="#F8F2E0" stroke="#F2DDB0" stroke-width="0.8" transform="rotate(118 224.3 440.2)"></ellipse><ellipse cx="297.8" cy="329.8" rx="6.5" ry="4" fill="#F8F2E0" stroke="#F2DDB0" stroke-width="0.8" transform="rotate(17 297.8 329.8)"></ellipse><ellipse cx="318.5" cy="463.8" rx="6.5" ry="4" fill="#F8F2E0" stroke="#F2DDB0" stroke-width="0.8" transform="rotate(96 318.5 463.8)"></ellipse><ellipse cx="210.5" cy="377.2" rx="6.5" ry="4" fill="#F8F2E0" stroke="#F2DDB0" stroke-width="0.8" transform="rotate(175 210.5 377.2)"></ellipse><ellipse cx="351.4" cy="367.9" rx="6.5" ry="4" fill="#F8F2E0" stroke="#F2DDB0" stroke-width="0.8" transform="rotate(74 351.4 367.9)"></ellipse><ellipse cx="251.9" cy="471.9" rx="6.5" ry="4" fill="#F8F2E0" stroke="#F2DDB0" stroke-width="0.8" transform="rotate(153 251.9 471.9)"></ellipse><ellipse cx="255.1" cy="325.3" rx="6.5" ry="4" fill="#F8F2E0" stroke="#F2DDB0" stroke-width="0.8" transform="rotate(52 255.1 325.3)"></ellipse><ellipse cx="353.5" cy="437.6" rx="6.5" ry="4" fill="#F8F2E0" stroke="#F2DDB0" stroke-width="0.8" transform="rotate(131 353.5 437.6)"></ellipse><ellipse cx="202.6" cy="420.9" rx="6.5" ry="4" fill="#F8F2E0" stroke="#F2DDB0" stroke-width="0.8" transform="rotate(30 202.6 420.9)"></ellipse><ellipse cx="327.2" cy="329.7" rx="6.5" ry="4" fill="#F8F2E0" stroke="#F2DDB0" stroke-width="0.8" transform="rotate(109 327.2 329.7)"></ellipse><ellipse cx="296.4" cy="483.6" rx="6.5" ry="4" fill="#F8F2E0" stroke="#F2DDB0" stroke-width="0.8" transform="rotate(8 296.4 483.6)"></ellipse><ellipse cx="213.9" cy="347.2" rx="6.5" ry="4" fill="#F8F2E0" stroke="#F2DDB0" stroke-width="0.8" transform="rotate(87 213.9 347.2)"></ellipse><ellipse cx="369.2" cy="392.8" rx="6.5" ry="4" fill="#F8F2E0" stroke="#F2DDB0" stroke-width="0.8" transform="rotate(166 369.2 392.8)"></ellipse><ellipse cx="221.7" cy="465.1" rx="6.5" ry="4" fill="#F8F2E0" stroke="#F2DDB0" stroke-width="0.8" transform="rotate(65 221.7 465.1)"></ellipse><ellipse cx="282.4" cy="310.0" rx="6.5" ry="4" fill="#F8F2E0" stroke="#F2DDB0" stroke-width="0.8" transform="rotate(144 282.4 310.0)"></ellipse><ellipse cx="343.3" cy="467.6" rx="6.5" ry="4" fill="#F8F2E0" stroke="#F2DDB0" stroke-width="0.8" transform="rotate(43 343.3 467.6)"></ellipse><ellipse cx="189.9" cy="391.5" rx="6.5" ry="4" fill="#F8F2E0" stroke="#F2DDB0" stroke-width="0.8" transform="rotate(122 189.9 391.5)"></ellipse><ellipse cx="356.6" cy="343.4" rx="6.5" ry="4" fill="#F8F2E0" stroke="#F2DDB0" stroke-width="0.8" transform="rotate(21 356.6 343.4)"></ellipse><ellipse cx="265.0" cy="493.3" rx="6.5" ry="4" fill="#F8F2E0" stroke="#F2DDB0" stroke-width="0.8" transform="rotate(100 265.0 493.3)"></ellipse><ellipse cx="230.8" cy="318.7" rx="6.5" ry="4" fill="#F8F2E0" stroke="#F2DDB0" stroke-width="0.8" transform="rotate(179 230.8 318.7)"></ellipse><ellipse cx="375.8" cy="425.7" rx="6.5" ry="4" fill="#F8F2E0" stroke="#F2DDB0" stroke-width="0.8" transform="rotate(78 375.8 425.7)"></ellipse><ellipse cx="194.5" cy="444.9" rx="6.5" ry="4" fill="#F8F2E0" stroke="#F2DDB0" stroke-width="0.8" transform="rotate(157 194.5 444.9)"></ellipse><ellipse cx="316.6" cy="306.7" rx="6.5" ry="4" fill="#F8F2E0" stroke="#F2DDB0" stroke-width="0.8" transform="rotate(56 316.6 306.7)"></ellipse><ellipse cx="320.0" cy="493.2" rx="6.5" ry="4" fill="#F8F2E0" stroke="#F2DDB0" stroke-width="0.8" transform="rotate(135 320.0 493.2)"></ellipse><ellipse cx="190.1" cy="356.4" rx="6.5" ry="4" fill="#F8F2E0" stroke="#F2DDB0" stroke-width="0.8" transform="rotate(34 190.1 356.4)"></ellipse><ellipse cx="380.3" cy="369.7" rx="6.5" ry="4" fill="#F8F2E0" stroke="#F2DDB0" stroke-width="0.8" transform="rotate(113 380.3 369.7)"></ellipse><ellipse cx="229.5" cy="489.7" rx="6.5" ry="4" fill="#F8F2E0" stroke="#F2DDB0" stroke-width="0.8" transform="rotate(12 229.5 489.7)"></ellipse><ellipse cx="259.9" cy="297.3" rx="6.5" ry="4" fill="#F8F2E0" stroke="#F2DDB0" stroke-width="0.8" transform="rotate(91 259.9 297.3)"></ellipse><ellipse cx="368.5" cy="461.4" rx="6.5" ry="4" fill="#F8F2E0" stroke="#F2DDB0" stroke-width="0.8" transform="rotate(170 368.5 461.4)"></ellipse><ellipse cx="175.7" cy="413.3" rx="6.5" ry="4" fill="#F8F2E0" stroke="#F2DDB0" stroke-width="0.8" transform="rotate(69 175.7 413.3)"></ellipse><ellipse cx="352.1" cy="317.6" rx="6.5" ry="4" fill="#F8F2E0" stroke="#F2DDB0" stroke-width="0.8" transform="rotate(148 352.1 317.6)"></ellipse><ellipse cx="286.0" cy="509.1" rx="6.5" ry="4" fill="#F8F2E0" stroke="#F2DDB0" stroke-width="0.8" transform="rotate(47 286.0 509.1)"></ellipse><ellipse cx="204.6" cy="321.5" rx="6.5" ry="4" fill="#F8F2E0" stroke="#F2DDB0" stroke-width="0.8" transform="rotate(126 204.6 321.5)"></ellipse><ellipse cx="393.1" cy="405.7" rx="6.5" ry="4" fill="#F8F2E0" stroke="#F2DDB0" stroke-width="0.8" transform="rotate(25 393.1 405.7)"></ellipse><ellipse cx="195.5" cy="471.5" rx="6.5" ry="4" fill="#F8F2E0" stroke="#F2DDB0" stroke-width="0.8" transform="rotate(104 195.5 471.5)"></ellipse><ellipse cx="297.6" cy="287.8" rx="6.5" ry="4" fill="#F8F2E0" stroke="#F2DDB0" stroke-width="0.8" transform="rotate(3 297.6 287.8)"></ellipse><ellipse cx="346.8" cy="494.1" rx="6.5" ry="4" fill="#F8F2E0" stroke="#F2DDB0" stroke-width="0.8" transform="rotate(82 346.8 494.1)"></ellipse><ellipse cx="169.7" cy="374.2" rx="6.5" ry="4" fill="#F8F2E0" stroke="#F2DDB0" stroke-width="0.8" transform="rotate(161 169.7 374.2)"></ellipse><ellipse cx="383.1" cy="342.7" rx="6.5" ry="4" fill="#F8F2E0" stroke="#F2DDB0" stroke-width="0.8" transform="rotate(60 383.1 342.7)"></ellipse><ellipse cx="245.9" cy="511.4" rx="6.5" ry="4" fill="#F8F2E0" stroke="#F2DDB0" stroke-width="0.8" transform="rotate(139 245.9 511.4)"></ellipse><ellipse cx="233.0" cy="292.6" rx="6.5" ry="4" fill="#F8F2E0" stroke="#F2DDB0" stroke-width="0.8" transform="rotate(38 233.0 292.6)"></ellipse><ellipse cx="391.6" cy="446.5" rx="6.5" ry="4" fill="#F8F2E0" stroke="#F2DDB0" stroke-width="0.8" transform="rotate(117 391.6 446.5)"></ellipse><ellipse cx="168.9" cy="440.1" rx="6.5" ry="4" fill="#F8F2E0" stroke="#F2DDB0" stroke-width="0.8" transform="rotate(16 168.9 440.1)"></ellipse><ellipse cx="338.8" cy="293.2" rx="6.5" ry="4" fill="#F8F2E0" stroke="#F2DDB0" stroke-width="0.8" transform="rotate(95 338.8 293.2)"></ellipse><ellipse cx="312.5" cy="518.0" rx="6.5" ry="4" fill="#F8F2E0" stroke="#F2DDB0" stroke-width="0.8" transform="rotate(174 312.5 518.0)"></ellipse><ellipse cx="179.0" cy="333.1" rx="6.5" ry="4" fill="#F8F2E0" stroke="#F2DDB0" stroke-width="0.8" transform="rotate(73 179.0 333.1)"></ellipse><ellipse cx="404.0" cy="379.6" rx="6.5" ry="4" fill="#F8F2E0" stroke="#F2DDB0" stroke-width="0.8" transform="rotate(152 404.0 379.6)"></ellipse><ellipse cx="205.2" cy="498.2" rx="6.5" ry="4" fill="#F8F2E0" stroke="#F2DDB0" stroke-width="0.8" transform="rotate(51 205.2 498.2)"></ellipse><ellipse cx="272.2" cy="274.9" rx="6.5" ry="4" fill="#F8F2E0" stroke="#F2DDB0" stroke-width="0.8" transform="rotate(130 272.2 274.9)"></ellipse><ellipse cx="374.4" cy="486.3" rx="6.5" ry="4" fill="#F8F2E0" stroke="#F2DDB0" stroke-width="0.8" transform="rotate(29 374.4 486.3)"></ellipse><ellipse cx="154.7" cy="398.8" rx="6.5" ry="4" fill="#F8F2E0" stroke="#F2DDB0" stroke-width="0.8" transform="rotate(108 154.7 398.8)"></ellipse><ellipse cx="377.3" cy="314.3" rx="6.5" ry="4" fill="#F8F2E0" stroke="#F2DDB0" stroke-width="0.8" transform="rotate(7 377.3 314.3)"></ellipse><ellipse cx="269.5" cy="528.4" rx="6.5" ry="4" fill="#F8F2E0" stroke="#F2DDB0" stroke-width="0.8" transform="rotate(86 269.5 528.4)"></ellipse><ellipse cx="203.9" cy="296.2" rx="6.5" ry="4" fill="#F8F2E0" stroke="#F2DDB0" stroke-width="0.8" transform="rotate(165 203.9 296.2)"></ellipse><ellipse cx="410.5" cy="424.0" rx="6.5" ry="4" fill="#F8F2E0" stroke="#F2DDB0" stroke-width="0.8" transform="rotate(64 410.5 424.0)"></ellipse><ellipse cx="170.3" cy="469.6" rx="6.5" ry="4" fill="#F8F2E0" stroke="#F2DDB0" stroke-width="0.8" transform="rotate(143 170.3 469.6)"></ellipse><ellipse cx="317.6" cy="272.4" rx="6.5" ry="4" fill="#F8F2E0" stroke="#F2DDB0" stroke-width="0.8" transform="rotate(42 317.6 272.4)"></ellipse><ellipse cx="342.3" cy="518.9" rx="6.5" ry="4" fill="#F8F2E0" stroke="#F2DDB0" stroke-width="0.8" transform="rotate(121 342.3 518.9)"></ellipse><ellipse cx="156.4" cy="352.8" rx="6.5" ry="4" fill="#F8F2E0" stroke="#F2DDB0" stroke-width="0.8" transform="rotate(20 156.4 352.8)"></ellipse><ellipse cx="407.3" cy="349.7" rx="6.5" ry="4" fill="#F8F2E0" stroke="#F2DDB0" stroke-width="0.8" transform="rotate(99 407.3 349.7)"></ellipse><ellipse cx="223.3" cy="522.5" rx="6.5" ry="4" fill="#F8F2E0" stroke="#F2DDB0" stroke-width="0.8" transform="rotate(178 223.3 522.5)"></ellipse><ellipse cx="242.3" cy="269.2" rx="6.5" ry="4" fill="#F8F2E0" stroke="#F2DDB0" stroke-width="0.8" transform="rotate(77 242.3 269.2)"></ellipse><ellipse cx="400.3" cy="470.1" rx="6.5" ry="4" fill="#F8F2E0" stroke="#F2DDB0" stroke-width="0.8" transform="rotate(156 400.3 470.1)"></ellipse><ellipse cx="146.7" cy="428.4" rx="6.5" ry="4" fill="#F8F2E0" stroke="#F2DDB0" stroke-width="0.8" transform="rotate(55 146.7 428.4)"></ellipse><ellipse cx="363.1" cy="287.0" rx="6.5" ry="4" fill="#F8F2E0" stroke="#F2DDB0" stroke-width="0.8" transform="rotate(134 363.1 287.0)"></ellipse><ellipse cx="298.7" cy="538.9" rx="6.5" ry="4" fill="#F8F2E0" stroke="#F2DDB0" stroke-width="0.8" transform="rotate(33 298.7 538.9)"></ellipse><ellipse cx="175.3" cy="308.3" rx="6.5" ry="4" fill="#F8F2E0" stroke="#F2DDB0" stroke-width="0.8" transform="rotate(112 175.3 308.3)"></ellipse><ellipse cx="423.4" cy="395.5" rx="6.5" ry="4" fill="#F8F2E0" stroke="#F2DDB0" stroke-width="0.8" transform="rotate(11 423.4 395.5)"></ellipse><ellipse cx="180.2" cy="499.4" rx="6.5" ry="4" fill="#F8F2E0" stroke="#F2DDB0" stroke-width="0.8" transform="rotate(90 180.2 499.4)"></ellipse><ellipse cx="290.0" cy="257.1" rx="6.5" ry="4" fill="#F8F2E0" stroke="#F2DDB0" stroke-width="0.8" transform="rotate(169 290.0 257.1)"></ellipse><ellipse cx="373.1" cy="511.3" rx="6.5" ry="4" fill="#F8F2E0" stroke="#F2DDB0" stroke-width="0.8" transform="rotate(68 373.1 511.3)"></ellipse><ellipse cx="138.8" cy="379.4" rx="6.5" ry="4" fill="#F8F2E0" stroke="#F2DDB0" stroke-width="0.8" transform="rotate(147 138.8 379.4)"></ellipse><ellipse cx="402.2" cy="318.1" rx="6.5" ry="4" fill="#F8F2E0" stroke="#F2DDB0" stroke-width="0.8" transform="rotate(46 402.2 318.1)"></ellipse><ellipse cx="248.6" cy="542.3" rx="6.5" ry="4" fill="#F8F2E0" stroke="#F2DDB0" stroke-width="0.8" transform="rotate(125 248.6 542.3)"></ellipse><ellipse cx="210.1" cy="271.8" rx="6.5" ry="4" fill="#F8F2E0" stroke="#F2DDB0" stroke-width="0.8" transform="rotate(24 210.1 271.8)"></ellipse><ellipse cx="422.3" cy="446.2" rx="6.5" ry="4" fill="#F8F2E0" stroke="#F2DDB0" stroke-width="0.8" transform="rotate(103 422.3 446.2)"></ellipse><ellipse cx="146.6" cy="461.0" rx="6.5" ry="4" fill="#F8F2E0" stroke="#F2DDB0" stroke-width="0.8" transform="rotate(2 146.6 461.0)"></ellipse><ellipse cx="340.9" cy="262.9" rx="6.5" ry="4" fill="#F8F2E0" stroke="#F2DDB0" stroke-width="0.8" transform="rotate(81 340.9 262.9)"></ellipse>

<circle cx="282" cy="400" r="30" fill="#B83D2E"></circle>
<circle cx="278" cy="396" r="10" fill="#E8A8A0" opacity="0.7"></circle>

<g>
  <circle cx="540" cy="280" r="34" fill="#D4A55E"></circle>
  <circle cx="600" cy="320" r="28" fill="#8B5E3C"></circle>
  <ellipse cx="640" cy="270" rx="30" ry="22" fill="#D4A55E" transform="rotate(20 640 270)"></ellipse>
  <circle cx="500" cy="340" r="22" fill="#D4A55E"></circle>
  
  <ellipse cx="580" cy="360" rx="32" ry="22" fill="#5C3A1F"></ellipse>
</g>

<g>
  <rect x="488" y="430" width="56" height="40" fill="#C86050" rx="6"></rect>
  <rect x="556" y="440" width="50" height="36" fill="#3E5C30" rx="6" opacity="0.85"></rect>
  <rect x="618" y="430" width="56" height="46" fill="#D4A55E" rx="6"></rect>
  <rect x="492" y="490" width="62" height="38" fill="#E8C580" rx="6"></rect>
  <rect x="572" y="500" width="52" height="32" fill="#C86050" opacity="0.85" rx="6"></rect>
  <rect x="636" y="500" width="50" height="40" fill="#3E5C30" rx="6"></rect>
</g>

<path d="M260 480 Q 230 510 210 540 Q 240 555 270 550 Q 300 540 305 510 Q 290 480 260 480 Z" fill="#3E5C30"></path></svg>