<svg xmlns="http://www.w3.org/2000/svg" viewBox="0 0 800 800" width="800" height="800">

<defs>
  <filter id="grain" x="0" y="0" width="100%" height="100%">
    <feTurbulence baseFrequency="0.85" numOctaves="2" stitchTiles="stitch" seed="3"></feTurbulence>
    <feColorMatrix values="0 0 0 0 0.16  0 0 0 0 0.12  0 0 0 0 0.08  0 0 0 0.05 0"></feColorMatrix>
  </filter>
  <filter id="soft" x="-10%" y="-10%" width="120%" height="120%">
    <feGaussianBlur stdDeviation="0.6"></feGaussianBlur>
  </filter>
  <radialGradient id="bowlShadow" cx="50%" cy="50%" r="50%">
    <stop offset="0%" stop-color="rgba(0,0,0,0)"></stop>
    <stop offset="85%" stop-color="rgba(0,0,0,0)"></stop>
    <stop offset="100%" stop-color="rgba(42,31,20,0.18)"></stop>
  </radialGradient>
  <radialGradient id="ambBroth" cx="50%" cy="40%" r="55%">
    <stop offset="0%" stop-color="#E8B870"></stop>
    <stop offset="100%" stop-color="#A87A3E"></stop>
  </radialGradient>
  <radialGradient id="misoBroth" cx="50%" cy="40%" r="55%">
    <stop offset="0%" stop-color="#D4A055"></stop>
    <stop offset="100%" stop-color="#7A4F1E"></stop>
  </radialGradient>
  <radialGradient id="redSauce" cx="50%" cy="40%" r="55%">
    <stop offset="0%" stop-color="#D86048"></stop>
    <stop offset="100%" stop-color="#8E2D1F"></stop>
  </radialGradient>
  <radialGradient id="lacquerSheen" cx="40%" cy="35%" r="60%">
    <stop offset="0%" stop-color="#5C3A28"></stop>
    <stop offset="100%" stop-color="#2A1810"></stop>
  </radialGradient>
</defs>
<rect width="800" height="800" fill="#F5EFE0"></rect>
<rect width="800" height="800" filter="url(#grain)"></rect>
<ellipse cx="400" cy="436.4" rx="343.2" ry="343.2" fill="rgba(42,31,20,0.12)" filter="url(#soft)"></ellipse>
<circle cx="400" cy="400" r="330" fill="#B83D2E"></circle>
<circle cx="400" cy="400" r="318" fill="#F8F2E0"></circle>
<circle cx="400" cy="400" r="295" fill="#F5EFE0"></circle>

<g fill="#B83D2E" opacity="0.8">
  <circle cx="708.0" cy="400.0" r="5"></circle><circle cx="617.8" cy="617.8" r="5"></circle><circle cx="400.0" cy="708.0" r="5"></circle><circle cx="182.2" cy="617.8" r="5"></circle><circle cx="92.0" cy="400.0" r="5"></circle><circle cx="182.2" cy="182.2" r="5"></circle><circle cx="400.0" cy="92.0" r="5"></circle><circle cx="617.8" cy="182.2" r="5"></circle>
</g>

<g>
  
  <rect x="393.7" y="402.9" width="70" height="12" rx="6" fill="#5A6A3D" transform="rotate(107 428.7 408.9)"></rect><rect x="392.2" y="447.5" width="70" height="12" rx="6" fill="#7A9B6C" transform="rotate(153 427.2 453.5)"></rect><rect x="335.9" y="479.2" width="70" height="12" rx="6" fill="#5A6A3D" transform="rotate(199 370.9 485.2)"></rect><rect x="256.5" y="445.3" width="70" height="12" rx="6" fill="#7A9B6C" transform="rotate(245 291.5 451.3)"></rect><rect x="336.9" y="383.5" width="70" height="12" rx="6" fill="#5A6A3D" transform="rotate(291 371.9 389.5)"></rect><rect x="341.0" y="339.0" width="70" height="12" rx="6" fill="#7A9B6C" transform="rotate(336 376.0 345.0)"></rect><rect x="399.0" y="310.7" width="70" height="12" rx="6" fill="#5A6A3D" transform="rotate(22 434.0 316.7)"></rect><rect x="476.3" y="349.1" width="70" height="12" rx="6" fill="#7A9B6C" transform="rotate(68 511.3 355.1)"></rect><rect x="392.4" y="406.1" width="70" height="12" rx="6" fill="#5A6A3D" transform="rotate(114 427.4 412.1)"></rect><rect x="385.8" y="450.3" width="70" height="12" rx="6" fill="#7A9B6C" transform="rotate(160 420.8 456.3)"></rect>
  
  <rect x="403.0" y="393.0" width="64" height="14" rx="7" fill="#A14A2A" transform="rotate(60 435.0 400.0)"></rect><rect x="411.6" y="454.0" width="64" height="14" rx="7" fill="#C86050" transform="rotate(114 443.6 461.0)"></rect><rect x="330.8" y="501.8" width="64" height="14" rx="7" fill="#A14A2A" transform="rotate(169 362.8 508.8)"></rect><rect x="334.5" y="403.1" width="64" height="14" rx="7" fill="#C86050" transform="rotate(223 366.5 410.1)"></rect><rect x="308.7" y="347.1" width="64" height="14" rx="7" fill="#A14A2A" transform="rotate(278 340.7 354.1)"></rect><rect x="372.3" y="278.1" width="64" height="14" rx="7" fill="#C86050" transform="rotate(332 404.3 285.1)"></rect><rect x="397.2" y="373.7" width="64" height="14" rx="7" fill="#A14A2A" transform="rotate(27 429.2 380.7)"></rect><rect x="438.0" y="419.9" width="64" height="14" rx="7" fill="#C86050" transform="rotate(81 470.0 426.9)"></rect><rect x="396.9" y="504.3" width="64" height="14" rx="7" fill="#A14A2A" transform="rotate(135 428.9 511.3)"></rect><rect x="345.6" y="419.9" width="64" height="14" rx="7" fill="#C86050" transform="rotate(190 377.6 426.9)"></rect><rect x="293.2" y="387.4" width="64" height="14" rx="7" fill="#A14A2A" transform="rotate(244 325.2 394.4)"></rect><rect x="308.3" y="294.7" width="64" height="14" rx="7" fill="#C86050" transform="rotate(299 340.3 301.7)"></rect>
  
  <rect x="413.9" y="419.0" width="60" height="10" rx="5" fill="#F8F2E0" stroke="#F2DDB0" stroke-width="1" transform="rotate(104 443.9 424.0)"></rect><rect x="367.5" y="480.0" width="60" height="10" rx="5" fill="#F8F2E0" stroke="#F2DDB0" stroke-width="1" transform="rotate(167 397.5 485.0)"></rect><rect x="261.5" y="446.3" width="60" height="10" rx="5" fill="#F8F2E0" stroke="#F2DDB0" stroke-width="1" transform="rotate(230 291.5 451.3)"></rect><rect x="330.5" y="364.4" width="60" height="10" rx="5" fill="#F8F2E0" stroke="#F2DDB0" stroke-width="1" transform="rotate(293 360.5 369.4)"></rect><rect x="385.9" y="311.5" width="60" height="10" rx="5" fill="#F8F2E0" stroke="#F2DDB0" stroke-width="1" transform="rotate(356 415.9 316.5)"></rect><rect x="485.2" y="361.5" width="60" height="10" rx="5" fill="#F8F2E0" stroke="#F2DDB0" stroke-width="1" transform="rotate(59 515.2 366.5)"></rect>
</g>

<g transform="rotate(35 400 400)">
  <rect x="540" y="340" width="240" height="9" rx="4" fill="#3E2418"></rect>
  <rect x="540" y="365" width="240" height="9" rx="4" fill="#3E2418"></rect>
</g></svg>