<svg xmlns="http://www.w3.org/2000/svg" viewBox="0 0 800 800" width="800" height="800">

<defs>
  <filter id="grain" x="0" y="0" width="100%" height="100%">
    <feTurbulence baseFrequency="0.85" numOctaves="2" stitchTiles="stitch" seed="3"></feTurbulence>
    <feColorMatrix values="0 0 0 0 0.16  0 0 0 0 0.12  0 0 0 0 0.08  0 0 0 0.05 0"></feColorMatrix>
  </filter>
  <filter id="soft" x="-10%" y="-10%" width="120%" height="120%">
    <feGaussianBlur stdDeviation="0.6"></feGaussianBlur>
  </filter>
  <radialGradient id="bowlShadow" cx="50%" cy="50%" r="50%">
    <stop offset="0%" stop-color="rgba(0,0,0,0)"></stop>
    <stop offset="85%" stop-color="rgba(0,0,0,0)"></stop>
    <stop offset="100%" stop-color="rgba(42,31,20,0.18)"></stop>
  </radialGradient>
  <radialGradient id="ambBroth" cx="50%" cy="40%" r="55%">
    <stop offset="0%" stop-color="#E8B870"></stop>
    <stop offset="100%" stop-color="#A87A3E"></stop>
  </radialGradient>
  <radialGradient id="misoBroth" cx="50%" cy="40%" r="55%">
    <stop offset="0%" stop-color="#D4A055"></stop>
    <stop offset="100%" stop-color="#7A4F1E"></stop>
  </radialGradient>
  <radialGradient id="redSauce" cx="50%" cy="40%" r="55%">
    <stop offset="0%" stop-color="#D86048"></stop>
    <stop offset="100%" stop-color="#8E2D1F"></stop>
  </radialGradient>
  <radialGradient id="lacquerSheen" cx="40%" cy="35%" r="60%">
    <stop offset="0%" stop-color="#5C3A28"></stop>
    <stop offset="100%" stop-color="#2A1810"></stop>
  </radialGradient>
</defs>
<rect width="800" height="800" fill="#F5EFE0"></rect>
<rect width="800" height="800" filter="url(#grain)"></rect>


<ellipse cx="400" cy="402.4" rx="291.2" ry="291.2" fill="rgba(42,31,20,0.12)" filter="url(#soft)"></ellipse>
<circle cx="400" cy="380" r="280" fill="#FFFDF7" stroke="#F2DDB0" stroke-width="2"></circle>
<circle cx="400" cy="380" r="240.79999999999998" fill="none" stroke="#F2DDB0" stroke-width="1.5" opacity="0.6"></circle>
<circle cx="400" cy="380" r="280" fill="url(#bowlShadow)"></circle>

<ellipse cx="400.0" cy="380.0" rx="6.5" ry="4" fill="#F8F2E0" stroke="#F2DDB0" stroke-width="0.8" transform="rotate(0 400.0 380.0)"></ellipse><ellipse cx="382.4" cy="396.1" rx="6.5" ry="4" fill="#F8F2E0" stroke="#F2DDB0" stroke-width="0.8" transform="rotate(79 382.4 396.1)"></ellipse><ellipse cx="403.0" cy="346.3" rx="6.5" ry="4" fill="#F8F2E0" stroke="#F2DDB0" stroke-width="0.8" transform="rotate(158 403.0 346.3)"></ellipse><ellipse cx="425.2" cy="412.9" rx="6.5" ry="4" fill="#F8F2E0" stroke="#F2DDB0" stroke-width="0.8" transform="rotate(57 425.2 412.9)"></ellipse><ellipse cx="352.9" cy="371.7" rx="6.5" ry="4" fill="#F8F2E0" stroke="#F2DDB0" stroke-width="0.8" transform="rotate(136 352.9 371.7)"></ellipse><ellipse cx="445.1" cy="351.3" rx="6.5" ry="4" fill="#F8F2E0" stroke="#F2DDB0" stroke-width="0.8" transform="rotate(35 445.1 351.3)"></ellipse><ellipse cx="384.8" cy="436.5" rx="6.5" ry="4" fill="#F8F2E0" stroke="#F2DDB0" stroke-width="0.8" transform="rotate(114 384.8 436.5)"></ellipse><ellipse cx="370.8" cy="323.9" rx="6.5" ry="4" fill="#F8F2E0" stroke="#F2DDB0" stroke-width="0.8" transform="rotate(13 370.8 323.9)"></ellipse><ellipse cx="463.5" cy="403.2" rx="6.5" ry="4" fill="#F8F2E0" stroke="#F2DDB0" stroke-width="0.8" transform="rotate(92 463.5 403.2)"></ellipse><ellipse cx="333.7" cy="407.4" rx="6.5" ry="4" fill="#F8F2E0" stroke="#F2DDB0" stroke-width="0.8" transform="rotate(171 333.7 407.4)"></ellipse><ellipse cx="432.0" cy="311.5" rx="6.5" ry="4" fill="#F8F2E0" stroke="#F2DDB0" stroke-width="0.8" transform="rotate(70 432.0 311.5)"></ellipse><ellipse cx="423.7" cy="455.6" rx="6.5" ry="4" fill="#F8F2E0" stroke="#F2DDB0" stroke-width="0.8" transform="rotate(149 423.7 455.6)"></ellipse><ellipse cx="328.4" cy="338.5" rx="6.5" ry="4" fill="#F8F2E0" stroke="#F2DDB0" stroke-width="0.8" transform="rotate(48 328.4 338.5)"></ellipse><ellipse cx="484.2" cy="361.5" rx="6.5" ry="4" fill="#F8F2E0" stroke="#F2DDB0" stroke-width="0.8" transform="rotate(127 484.2 361.5)"></ellipse><ellipse cx="348.6" cy="453.2" rx="6.5" ry="4" fill="#F8F2E0" stroke="#F2DDB0" stroke-width="0.8" transform="rotate(26 348.6 453.2)"></ellipse><ellipse cx="388.1" cy="288.2" rx="6.5" ry="4" fill="#F8F2E0" stroke="#F2DDB0" stroke-width="0.8" transform="rotate(105 388.1 288.2)"></ellipse><ellipse cx="473.1" cy="441.6" rx="6.5" ry="4" fill="#F8F2E0" stroke="#F2DDB0" stroke-width="0.8" transform="rotate(4 473.1 441.6)"></ellipse><ellipse cx="301.5" cy="384.1" rx="6.5" ry="4" fill="#F8F2E0" stroke="#F2DDB0" stroke-width="0.8" transform="rotate(83 301.5 384.1)"></ellipse><ellipse cx="471.9" cy="308.5" rx="6.5" ry="4" fill="#F8F2E0" stroke="#F2DDB0" stroke-width="0.8" transform="rotate(162 471.9 308.5)"></ellipse><ellipse cx="395.2" cy="484.1" rx="6.5" ry="4" fill="#F8F2E0" stroke="#F2DDB0" stroke-width="0.8" transform="rotate(61 395.2 484.1)"></ellipse><ellipse cx="331.5" cy="297.9" rx="6.5" ry="4" fill="#F8F2E0" stroke="#F2DDB0" stroke-width="0.8" transform="rotate(140 331.5 297.9)"></ellipse><ellipse cx="508.6" cy="394.6" rx="6.5" ry="4" fill="#F8F2E0" stroke="#F2DDB0" stroke-width="0.8" transform="rotate(39 508.6 394.6)"></ellipse><ellipse cx="308.0" cy="444.0" rx="6.5" ry="4" fill="#F8F2E0" stroke="#F2DDB0" stroke-width="0.8" transform="rotate(118 308.0 444.0)"></ellipse><ellipse cx="425.2" cy="268.2" rx="6.5" ry="4" fill="#F8F2E0" stroke="#F2DDB0" stroke-width="0.8" transform="rotate(17 425.2 268.2)"></ellipse><ellipse cx="458.2" cy="481.6" rx="6.5" ry="4" fill="#F8F2E0" stroke="#F2DDB0" stroke-width="0.8" transform="rotate(96 458.2 481.6)"></ellipse><ellipse cx="286.1" cy="343.7" rx="6.5" ry="4" fill="#F8F2E0" stroke="#F2DDB0" stroke-width="0.8" transform="rotate(175 286.1 343.7)"></ellipse><ellipse cx="510.6" cy="328.9" rx="6.5" ry="4" fill="#F8F2E0" stroke="#F2DDB0" stroke-width="0.8" transform="rotate(74 510.6 328.9)"></ellipse><ellipse cx="352.1" cy="494.6" rx="6.5" ry="4" fill="#F8F2E0" stroke="#F2DDB0" stroke-width="0.8" transform="rotate(153 352.1 494.6)"></ellipse><ellipse cx="357.2" cy="261.0" rx="6.5" ry="4" fill="#F8F2E0" stroke="#F2DDB0" stroke-width="0.8" transform="rotate(52 357.2 261.0)"></ellipse><ellipse cx="514.0" cy="439.9" rx="6.5" ry="4" fill="#F8F2E0" stroke="#F2DDB0" stroke-width="0.8" transform="rotate(131 514.0 439.9)"></ellipse><ellipse cx="273.4" cy="413.4" rx="6.5" ry="4" fill="#F8F2E0" stroke="#F2DDB0" stroke-width="0.8" transform="rotate(30 273.4 413.4)"></ellipse><ellipse cx="472.0" cy="268.0" rx="6.5" ry="4" fill="#F8F2E0" stroke="#F2DDB0" stroke-width="0.8" transform="rotate(109 472.0 268.0)"></ellipse><ellipse cx="422.9" cy="513.3" rx="6.5" ry="4" fill="#F8F2E0" stroke="#F2DDB0" stroke-width="0.8" transform="rotate(8 422.9 513.3)"></ellipse><ellipse cx="291.4" cy="295.9" rx="6.5" ry="4" fill="#F8F2E0" stroke="#F2DDB0" stroke-width="0.8" transform="rotate(87 291.4 295.9)"></ellipse><ellipse cx="538.9" cy="368.5" rx="6.5" ry="4" fill="#F8F2E0" stroke="#F2DDB0" stroke-width="0.8" transform="rotate(166 538.9 368.5)"></ellipse><ellipse cx="304.0" cy="483.8" rx="6.5" ry="4" fill="#F8F2E0" stroke="#F2DDB0" stroke-width="0.8" transform="rotate(65 304.0 483.8)"></ellipse><ellipse cx="400.7" cy="236.6" rx="6.5" ry="4" fill="#F8F2E0" stroke="#F2DDB0" stroke-width="0.8" transform="rotate(144 400.7 236.6)"></ellipse><ellipse cx="497.7" cy="487.7" rx="6.5" ry="4" fill="#F8F2E0" stroke="#F2DDB0" stroke-width="0.8" transform="rotate(43 497.7 487.7)"></ellipse><ellipse cx="253.3" cy="366.4" rx="6.5" ry="4" fill="#F8F2E0" stroke="#F2DDB0" stroke-width="0.8" transform="rotate(122 253.3 366.4)"></ellipse><ellipse cx="518.9" cy="289.7" rx="6.5" ry="4" fill="#F8F2E0" stroke="#F2DDB0" stroke-width="0.8" transform="rotate(21 518.9 289.7)"></ellipse><ellipse cx="373.0" cy="528.7" rx="6.5" ry="4" fill="#F8F2E0" stroke="#F2DDB0" stroke-width="0.8" transform="rotate(100 373.0 528.7)"></ellipse><ellipse cx="318.5" cy="250.5" rx="6.5" ry="4" fill="#F8F2E0" stroke="#F2DDB0" stroke-width="0.8" transform="rotate(179 318.5 250.5)"></ellipse><ellipse cx="549.4" cy="420.9" rx="6.5" ry="4" fill="#F8F2E0" stroke="#F2DDB0" stroke-width="0.8" transform="rotate(78 549.4 420.9)"></ellipse><ellipse cx="260.5" cy="451.6" rx="6.5" ry="4" fill="#F8F2E0" stroke="#F2DDB0" stroke-width="0.8" transform="rotate(157 260.5 451.6)"></ellipse><ellipse cx="455.1" cy="231.3" rx="6.5" ry="4" fill="#F8F2E0" stroke="#F2DDB0" stroke-width="0.8" transform="rotate(56 455.1 231.3)"></ellipse><ellipse cx="460.5" cy="528.5" rx="6.5" ry="4" fill="#F8F2E0" stroke="#F2DDB0" stroke-width="0.8" transform="rotate(135 460.5 528.5)"></ellipse><ellipse cx="253.5" cy="310.6" rx="6.5" ry="4" fill="#F8F2E0" stroke="#F2DDB0" stroke-width="0.8" transform="rotate(34 253.5 310.6)"></ellipse><ellipse cx="556.6" cy="331.7" rx="6.5" ry="4" fill="#F8F2E0" stroke="#F2DDB0" stroke-width="0.8" transform="rotate(113 556.6 331.7)"></ellipse><ellipse cx="316.3" cy="522.9" rx="6.5" ry="4" fill="#F8F2E0" stroke="#F2DDB0" stroke-width="0.8" transform="rotate(12 316.3 522.9)"></ellipse><ellipse cx="364.8" cy="216.4" rx="6.5" ry="4" fill="#F8F2E0" stroke="#F2DDB0" stroke-width="0.8" transform="rotate(91 364.8 216.4)"></ellipse><ellipse cx="537.8" cy="477.9" rx="6.5" ry="4" fill="#F8F2E0" stroke="#F2DDB0" stroke-width="0.8" transform="rotate(170 537.8 477.9)"></ellipse><ellipse cx="230.6" cy="401.1" rx="6.5" ry="4" fill="#F8F2E0" stroke="#F2DDB0" stroke-width="0.8" transform="rotate(69 230.6 401.1)"></ellipse><ellipse cx="511.7" cy="248.7" rx="6.5" ry="4" fill="#F8F2E0" stroke="#F2DDB0" stroke-width="0.8" transform="rotate(148 511.7 248.7)"></ellipse><ellipse cx="406.4" cy="553.9" rx="6.5" ry="4" fill="#F8F2E0" stroke="#F2DDB0" stroke-width="0.8" transform="rotate(47 406.4 553.9)"></ellipse><ellipse cx="276.7" cy="254.9" rx="6.5" ry="4" fill="#F8F2E0" stroke="#F2DDB0" stroke-width="0.8" transform="rotate(126 276.7 254.9)"></ellipse><ellipse cx="577.1" cy="389.0" rx="6.5" ry="4" fill="#F8F2E0" stroke="#F2DDB0" stroke-width="0.8" transform="rotate(25 577.1 389.0)"></ellipse><ellipse cx="262.1" cy="494.0" rx="6.5" ry="4" fill="#F8F2E0" stroke="#F2DDB0" stroke-width="0.8" transform="rotate(104 262.1 494.0)"></ellipse><ellipse cx="424.9" cy="201.3" rx="6.5" ry="4" fill="#F8F2E0" stroke="#F2DDB0" stroke-width="0.8" transform="rotate(3 424.9 201.3)"></ellipse><ellipse cx="503.3" cy="529.9" rx="6.5" ry="4" fill="#F8F2E0" stroke="#F2DDB0" stroke-width="0.8" transform="rotate(82 503.3 529.9)"></ellipse><ellipse cx="221.1" cy="338.9" rx="6.5" ry="4" fill="#F8F2E0" stroke="#F2DDB0" stroke-width="0.8" transform="rotate(161 221.1 338.9)"></ellipse><ellipse cx="561.1" cy="288.7" rx="6.5" ry="4" fill="#F8F2E0" stroke="#F2DDB0" stroke-width="0.8" transform="rotate(60 561.1 288.7)"></ellipse><ellipse cx="342.4" cy="557.6" rx="6.5" ry="4" fill="#F8F2E0" stroke="#F2DDB0" stroke-width="0.8" transform="rotate(139 342.4 557.6)"></ellipse><ellipse cx="321.9" cy="208.8" rx="6.5" ry="4" fill="#F8F2E0" stroke="#F2DDB0" stroke-width="0.8" transform="rotate(38 321.9 208.8)"></ellipse><ellipse cx="574.7" cy="454.1" rx="6.5" ry="4" fill="#F8F2E0" stroke="#F2DDB0" stroke-width="0.8" transform="rotate(117 574.7 454.1)"></ellipse><ellipse cx="219.7" cy="443.9" rx="6.5" ry="4" fill="#F8F2E0" stroke="#F2DDB0" stroke-width="0.8" transform="rotate(16 219.7 443.9)"></ellipse><ellipse cx="490.5" cy="209.8" rx="6.5" ry="4" fill="#F8F2E0" stroke="#F2DDB0" stroke-width="0.8" transform="rotate(95 490.5 209.8)"></ellipse><ellipse cx="448.6" cy="568.0" rx="6.5" ry="4" fill="#F8F2E0" stroke="#F2DDB0" stroke-width="0.8" transform="rotate(174 448.6 568.0)"></ellipse><ellipse cx="235.9" cy="273.4" rx="6.5" ry="4" fill="#F8F2E0" stroke="#F2DDB0" stroke-width="0.8" transform="rotate(73 235.9 273.4)"></ellipse><ellipse cx="594.4" cy="347.5" rx="6.5" ry="4" fill="#F8F2E0" stroke="#F2DDB0" stroke-width="0.8" transform="rotate(152 594.4 347.5)"></ellipse><ellipse cx="277.7" cy="536.4" rx="6.5" ry="4" fill="#F8F2E0" stroke="#F2DDB0" stroke-width="0.8" transform="rotate(51 277.7 536.4)"></ellipse>

<ellipse cx="400" cy="370" rx="120" ry="70" fill="#C86050" opacity="0.85"></ellipse>
<ellipse cx="380" cy="370" rx="90" ry="55" fill="#A14A2A" opacity="0.8"></ellipse>

<ellipse cx="640" cy="228.8" rx="114.4" ry="114.4" fill="rgba(42,31,20,0.12)" filter="url(#soft)"></ellipse>
<circle cx="640" cy="220" r="110" fill="#3E2418"></circle>
<circle cx="640" cy="220" r="98" fill="#5C3A1F"></circle>
<circle cx="640" cy="220" r="85" fill="url(#misoBroth)"></circle>
<rect x="612" y="195" width="20" height="20" fill="#F8F2E0" stroke="#F2DDB0" stroke-width="1"></rect>
<circle cx="640.0" cy="220.0" r="6" fill="#7A9B6C"></circle><circle cx="640.0" cy="220.0" r="2.4" fill="#DDE4C8"></circle><circle cx="637.1" cy="242.2" r="6" fill="#7A9B6C"></circle><circle cx="637.1" cy="242.2" r="2.4" fill="#DDE4C8"></circle><circle cx="609.4" cy="211.9" r="6" fill="#7A9B6C"></circle><circle cx="609.4" cy="211.9" r="2.4" fill="#DDE4C8"></circle><circle cx="654.6" cy="184.1" r="6" fill="#7A9B6C"></circle><circle cx="654.6" cy="184.1" r="2.4" fill="#DDE4C8"></circle><circle cx="678.9" cy="242.1" r="6" fill="#7A9B6C"></circle><circle cx="678.9" cy="242.1" r="2.4" fill="#DDE4C8"></circle>

<ellipse cx="160" cy="227.2" rx="93.60000000000001" ry="93.60000000000001" fill="rgba(42,31,20,0.12)" filter="url(#soft)"></ellipse>
<circle cx="160" cy="220" r="90" fill="#F8F2E0" stroke="#F2DDB0" stroke-width="2"></circle>
<circle cx="160" cy="220" r="78" fill="#F5EFE0" opacity="0.4"></circle>
<rect x="125" y="200" width="36" height="14" rx="3" fill="#C86050"></rect>
<rect x="135" y="225" width="32" height="14" rx="3" fill="#3E5C30"></rect>
<rect x="170" y="210" width="34" height="14" rx="3" fill="#D4A55E"></rect>

<g transform="rotate(-8 400 660)">
  <rect x="200" y="640" width="400" height="9" rx="4" fill="#3E2418"></rect>
  <rect x="200" y="665" width="400" height="9" rx="4" fill="#3E2418"></rect>
</g>

<path d="M460 320 Q 440 300 460 280 Q 490 290 495 320 Q 480 340 460 320 Z" fill="#3E5C30"></path></svg>