<svg xmlns="http://www.w3.org/2000/svg" viewBox="0 0 800 800" width="800" height="800">

<defs>
  <filter id="grain" x="0" y="0" width="100%" height="100%">
    <feTurbulence baseFrequency="0.85" numOctaves="2" stitchTiles="stitch" seed="3"></feTurbulence>
    <feColorMatrix values="0 0 0 0 0.16  0 0 0 0 0.12  0 0 0 0 0.08  0 0 0 0.05 0"></feColorMatrix>
  </filter>
  <filter id="soft" x="-10%" y="-10%" width="120%" height="120%">
    <feGaussianBlur stdDeviation="0.6"></feGaussianBlur>
  </filter>
  <radialGradient id="bowlShadow" cx="50%" cy="50%" r="50%">
    <stop offset="0%" stop-color="rgba(0,0,0,0)"></stop>
    <stop offset="85%" stop-color="rgba(0,0,0,0)"></stop>
    <stop offset="100%" stop-color="rgba(42,31,20,0.18)"></stop>
  </radialGradient>
  <radialGradient id="ambBroth" cx="50%" cy="40%" r="55%">
    <stop offset="0%" stop-color="#E8B870"></stop>
    <stop offset="100%" stop-color="#A87A3E"></stop>
  </radialGradient>
  <radialGradient id="misoBroth" cx="50%" cy="40%" r="55%">
    <stop offset="0%" stop-color="#D4A055"></stop>
    <stop offset="100%" stop-color="#7A4F1E"></stop>
  </radialGradient>
  <radialGradient id="redSauce" cx="50%" cy="40%" r="55%">
    <stop offset="0%" stop-color="#D86048"></stop>
    <stop offset="100%" stop-color="#8E2D1F"></stop>
  </radialGradient>
  <radialGradient id="lacquerSheen" cx="40%" cy="35%" r="60%">
    <stop offset="0%" stop-color="#5C3A28"></stop>
    <stop offset="100%" stop-color="#2A1810"></stop>
  </radialGradient>
</defs>
<rect width="800" height="800" fill="#F5EFE0"></rect>
<rect width="800" height="800" filter="url(#grain)"></rect>

<ellipse cx="400" cy="420.8" rx="270.40000000000003" ry="270.40000000000003" fill="rgba(42,31,20,0.12)" filter="url(#soft)"></ellipse>
<circle cx="400" cy="400" r="260" fill="#FFFDF7" stroke="#F2DDB0" stroke-width="2"></circle>
<circle cx="400" cy="400" r="223.6" fill="none" stroke="#F2DDB0" stroke-width="1.5" opacity="0.6"></circle>
<circle cx="400" cy="400" r="260" fill="url(#bowlShadow)"></circle>

<path d="M569.6 400.0 L565.2 429.1 L556.1 456.8 L544.2 483.3 L530.0 509.1 L511.9 533.4 L488.7 553.6 L460.5 566.3 L430.1 570.5 L400.0 567.7 L371.6 561.2 L344.2 553.3 L317.1 543.6 L290.9 530.0 L267.9 510.8 L250.4 486.4 L239.0 458.6 L232.6 429.5 L229.6 400.0 L230.4 370.1 L236.6 340.5 L249.8 313.3 L269.5 290.5 L293.4 273.0 L318.7 259.1 L344.3 246.8 L371.0 235.6 L400.0 227.7 L430.6 226.3 L460.5 233.8 L487.1 249.1 L509.4 269.6 L528.4 292.3 L544.9 316.4 L558.5 342.3 L567.4 370.5 L569.6 400.0 Z" fill="#5A6A3D"></path>
<path d="M519.2 395.0 L518.0 416.7 L515.3 438.8 L508.9 460.8 L497.3 480.9 L480.7 497.2 L460.8 509.0 L439.5 517.2 L417.5 522.7 L395.0 525.6 L372.2 524.4 L350.2 518.1 L330.5 506.6 L313.8 491.8 L299.2 475.4 L285.6 458.2 L273.0 439.4 L263.3 418.2 L259.2 395.0 L262.0 371.5 L271.0 349.8 L283.7 330.8 L298.2 313.7 L313.6 298.0 L330.8 283.9 L350.6 272.9 L372.4 266.7 L395.0 265.6 L417.3 268.4 L439.1 273.7 L460.5 281.5 L480.9 292.6 L498.3 308.3 L510.7 328.2 L517.3 350.5 L519.4 373.1 L519.2 395.0 Z" fill="#7A9B6C"></path>
<path d="M477.5 395.0 L477.6 410.4 L474.8 425.9 L468.5 440.3 L459.0 452.9 L447.6 463.6 L434.9 472.7 L421.1 480.4 L406.0 485.9 L390.0 487.8 L374.1 485.4 L359.4 479.0 L346.5 470.4 L334.7 460.9 L323.4 450.9 L312.7 439.6 L303.8 426.4 L298.5 411.1 L297.5 395.0 L300.3 379.2 L305.6 364.3 L312.6 350.3 L321.1 337.2 L331.9 325.7 L344.9 316.8 L359.5 311.3 L374.8 308.6 L390.0 307.8 L405.3 308.1 L421.0 309.9 L436.5 314.5 L450.4 323.0 L461.3 335.2 L468.6 349.6 L473.0 364.8 L475.8 379.9 L477.5 395.0 Z" fill="#7A9B6C" opacity="0.85"></path>

<ellipse cx="440.0" cy="400.0" rx="42" ry="9" fill="#3E5C30" transform="rotate(90 440.0 400.0)" opacity="0.6"></ellipse><ellipse cx="446.2" cy="452.6" rx="42" ry="9" fill="#3E5C30" transform="rotate(139 446.2 452.6)" opacity="0.6"></ellipse><ellipse cx="387.1" cy="499.2" rx="42" ry="9" fill="#3E5C30" transform="rotate(187 387.1 499.2)" opacity="0.6"></ellipse><ellipse cx="366.8" cy="422.3" rx="42" ry="9" fill="#3E5C30" transform="rotate(236 366.8 422.3)" opacity="0.6"></ellipse><ellipse cx="332.3" cy="382.1" rx="42" ry="9" fill="#3E5C30" transform="rotate(285 332.3 382.1)" opacity="0.6"></ellipse><ellipse cx="355.4" cy="310.5" rx="42" ry="9" fill="#3E5C30" transform="rotate(334 355.4 310.5)" opacity="0.6"></ellipse><ellipse cx="415.1" cy="363.0" rx="42" ry="9" fill="#3E5C30" transform="rotate(22 415.1 363.0)" opacity="0.6"></ellipse><ellipse cx="466.2" cy="377.1" rx="42" ry="9" fill="#3E5C30" transform="rotate(71 466.2 377.1)" opacity="0.6"></ellipse><ellipse cx="486.9" cy="449.4" rx="42" ry="9" fill="#3E5C30" transform="rotate(120 486.9 449.4)" opacity="0.6"></ellipse><ellipse cx="408.1" cy="439.2" rx="42" ry="9" fill="#3E5C30" transform="rotate(168 408.1 439.2)" opacity="0.6"></ellipse><ellipse cx="357.9" cy="455.9" rx="42" ry="9" fill="#3E5C30" transform="rotate(217 357.9 455.9)" opacity="0.6"></ellipse><ellipse cx="300.3" cy="407.5" rx="42" ry="9" fill="#3E5C30" transform="rotate(266 300.3 407.5)" opacity="0.6"></ellipse><ellipse cx="371.4" cy="372.0" rx="42" ry="9" fill="#3E5C30" transform="rotate(314 371.4 372.0)" opacity="0.6"></ellipse><ellipse cx="403.8" cy="330.1" rx="42" ry="9" fill="#3E5C30" transform="rotate(3 403.8 330.1)" opacity="0.6"></ellipse>

<ellipse cx="400.0" cy="400.0" rx="3.5" ry="2.4" fill="#F2DDB0" transform="rotate(0 400 400)"></ellipse><ellipse cx="381.2" cy="417.3" rx="3.5" ry="2.4" fill="#F2DDB0" transform="rotate(30 381.1519319843239 417.2650996350957)"></ellipse><ellipse cx="403.2" cy="364.0" rx="3.5" ry="2.4" fill="#F2DDB0" transform="rotate(60 403.16289965292987 363.99079655904393)"></ellipse><ellipse cx="426.9" cy="435.1" rx="3.5" ry="2.4" fill="#F2DDB0" transform="rotate(0 426.93286080071186 435.1371741762123)"></ellipse><ellipse cx="349.7" cy="391.1" rx="3.5" ry="2.4" fill="#F2DDB0" transform="rotate(30 349.6619965994818 391.08828035771126)"></ellipse><ellipse cx="448.2" cy="369.3" rx="3.5" ry="2.4" fill="#F2DDB0" transform="rotate(60 448.23027104751844 369.3323032923962)"></ellipse><ellipse cx="383.7" cy="460.5" rx="3.5" ry="2.4" fill="#F2DDB0" transform="rotate(0 383.7328604336095 460.45974007823366)"></ellipse><ellipse cx="368.8" cy="340.0" rx="3.5" ry="2.4" fill="#F2DDB0" transform="rotate(30 368.8459541442914 339.977014734739)"></ellipse><ellipse cx="467.9" cy="424.8" rx="3.5" ry="2.4" fill="#F2DDB0" transform="rotate(60 467.9015822086212 424.82018936737836)"></ellipse><ellipse cx="329.1" cy="429.2" rx="3.5" ry="2.4" fill="#F2DDB0" transform="rotate(0 329.1104337143777 429.2347292075087)"></ellipse><ellipse cx="434.3" cy="326.8" rx="3.5" ry="2.4" fill="#F2DDB0" transform="rotate(30 434.28598096988446 326.8029724492445)"></ellipse><ellipse cx="425.3" cy="480.9" rx="3.5" ry="2.4" fill="#F2DDB0" transform="rotate(60 425.338833857215 480.8987649190216)"></ellipse><ellipse cx="323.4" cy="355.6" rx="3.5" ry="2.4" fill="#F2DDB0" transform="rotate(0 323.41053088400935 355.56968129159196)"></ellipse><ellipse cx="490.0" cy="380.3" rx="3.5" ry="2.4" fill="#F2DDB0" transform="rotate(30 490.019187273099 380.2546396329654)"></ellipse><ellipse cx="345.0" cy="478.2" rx="3.5" ry="2.4" fill="#F2DDB0" transform="rotate(60 344.9553841410991 478.2096984498259)"></ellipse><ellipse cx="387.3" cy="301.8" rx="3.5" ry="2.4" fill="#F2DDB0" transform="rotate(0 387.3322410246336 301.81890262101354)"></ellipse><ellipse cx="478.1" cy="465.9" rx="3.5" ry="2.4" fill="#F2DDB0" transform="rotate(30 478.1401161852422 465.9352377404539)"></ellipse><ellipse cx="294.7" cy="404.3" rx="3.5" ry="2.4" fill="#F2DDB0" transform="rotate(60 294.69912308148537 404.2885879795684)"></ellipse><ellipse cx="476.9" cy="323.6" rx="3.5" ry="2.4" fill="#F2DDB0" transform="rotate(0 476.91857825480344 323.556999540444)"></ellipse><ellipse cx="394.8" cy="511.3" rx="3.5" ry="2.4" fill="#F2DDB0" transform="rotate(30 394.7758194152869 511.2925930623941)"></ellipse><ellipse cx="326.8" cy="312.2" rx="3.5" ry="2.4" fill="#F2DDB0" transform="rotate(60 326.82540697324254 312.1811774046413)"></ellipse><ellipse cx="516.1" cy="415.7" rx="3.5" ry="2.4" fill="#F2DDB0" transform="rotate(0 516.0742471465226 415.7088875916783)"></ellipse><ellipse cx="301.5" cy="468.4" rx="3.5" ry="2.4" fill="#F2DDB0" transform="rotate(30 301.5328900981315 468.39270137161327)"></ellipse><ellipse cx="427.0" cy="280.4" rx="3.5" ry="2.4" fill="#F2DDB0" transform="rotate(60 427.00588485365216 280.42847809809416)"></ellipse><ellipse cx="462.2" cy="508.7" rx="3.5" ry="2.4" fill="#F2DDB0" transform="rotate(0 462.1609897070017 508.7014781805934)"></ellipse><ellipse cx="278.3" cy="361.0" rx="3.5" ry="2.4" fill="#F2DDB0" transform="rotate(30 278.279782865375 361.04461431286967)"></ellipse><ellipse cx="518.4" cy="345.4" rx="3.5" ry="2.4" fill="#F2DDB0" transform="rotate(60 518.3672641758229 345.44857987001967)"></ellipse><ellipse cx="348.6" cy="522.5" rx="3.5" ry="2.4" fill="#F2DDB0" transform="rotate(0 348.6034307619238 522.4679250683853)"></ellipse><ellipse cx="354.4" cy="272.7" rx="3.5" ry="2.4" fill="#F2DDB0" transform="rotate(30 354.3544227721925 272.6822297836096)"></ellipse><ellipse cx="521.8" cy="464.2" rx="3.5" ry="2.4" fill="#F2DDB0" transform="rotate(60 521.7752192692634 464.1674577849978)"></ellipse>
<ellipse cx="400.0" cy="400.0" rx="3.2" ry="2.2" fill="#5C3A1F" transform="rotate(30 400 400)"></ellipse><ellipse cx="432.3" cy="409.1" rx="3.2" ry="2.2" fill="#5C3A1F" transform="rotate(12 432.270315314006 409.14476623728734)"></ellipse><ellipse cx="357.6" cy="421.3" rx="3.2" ry="2.2" fill="#5C3A1F" transform="rotate(84 357.61194575333815 421.289735958486)"></ellipse><ellipse cx="420.7" cy="345.7" rx="3.2" ry="2.2" fill="#5C3A1F" transform="rotate(66 420.66910314887105 345.7064628613927)"></ellipse><ellipse cx="424.7" cy="462.4" rx="3.2" ry="2.2" fill="#5C3A1F" transform="rotate(48 424.7475633133936 462.3502855651005)"></ellipse><ellipse cx="332.5" cy="367.3" rx="3.2" ry="2.2" fill="#5C3A1F" transform="rotate(30 332.51097410081184 367.28560892850504)"></ellipse><ellipse cx="478.7" cy="376.5" rx="3.2" ry="2.2" fill="#5C3A1F" transform="rotate(12 478.72235593473386 376.48849906779515)"></ellipse><ellipse cx="354.5" cy="476.2" rx="3.2" ry="2.2" fill="#5C3A1F" transform="rotate(84 354.453119617907 476.16089342608393)"></ellipse><ellipse cx="380.9" cy="307.1" rx="3.2" ry="2.2" fill="#5C3A1F" transform="rotate(66 380.90910620083815 307.0724057453916)"></ellipse><ellipse cx="481.5" cy="459.0" rx="3.2" ry="2.2" fill="#5C3A1F" transform="rotate(48 481.50820590222474 459.00349456261495)"></ellipse><ellipse cx="294.6" cy="412.2" rx="3.2" ry="2.2" fill="#5C3A1F" transform="rotate(30 294.6346719672974 412.171591866349)"></ellipse><ellipse cx="472.9" cy="315.9" rx="3.2" ry="2.2" fill="#5C3A1F" transform="rotate(12 472.8652275993444 315.94252795321677)"></ellipse><ellipse cx="403.2" cy="516.1" rx="3.2" ry="2.2" fill="#5C3A1F" transform="rotate(84 403.1828705077174 516.1458967649357)"></ellipse><ellipse cx="315.9" cy="313.1" rx="3.2" ry="2.2" fill="#5C3A1F" transform="rotate(66 315.90141643160104 313.0952921770689)"></ellipse><ellipse cx="525.3" cy="407.6" rx="3.2" ry="2.2" fill="#5C3A1F" transform="rotate(48 525.2715617008829 407.5522068974506)"></ellipse><ellipse cx="299.1" cy="481.8" rx="3.2" ry="2.2" fill="#5C3A1F" transform="rotate(30 299.10306480952835 481.82180925138334)"></ellipse><ellipse cx="419.8" cy="267.3" rx="3.2" ry="2.2" fill="#5C3A1F" transform="rotate(12 419.7606286432088 267.2991425964957)"></ellipse><ellipse cx="477.4" cy="514.6" rx="3.2" ry="2.2" fill="#5C3A1F" transform="rotate(84 477.3733547553485 514.622702698475)"></ellipse><ellipse cx="261.6" cy="366.8" rx="3.2" ry="2.2" fill="#5C3A1F" transform="rotate(66 261.62323754318663 366.8055484761286)"></ellipse><ellipse cx="527.9" cy="329.1" rx="3.2" ry="2.2" fill="#5C3A1F" transform="rotate(48 527.8702733872628 329.1184566768849)"></ellipse></svg>