<svg xmlns="http://www.w3.org/2000/svg" viewBox="0 0 800 800" width="800" height="800">

<defs>
  <filter id="grain" x="0" y="0" width="100%" height="100%">
    <feTurbulence baseFrequency="0.85" numOctaves="2" stitchTiles="stitch" seed="3"></feTurbulence>
    <feColorMatrix values="0 0 0 0 0.16  0 0 0 0 0.12  0 0 0 0 0.08  0 0 0 0.05 0"></feColorMatrix>
  </filter>
  <filter id="soft" x="-10%" y="-10%" width="120%" height="120%">
    <feGaussianBlur stdDeviation="0.6"></feGaussianBlur>
  </filter>
  <radialGradient id="bowlShadow" cx="50%" cy="50%" r="50%">
    <stop offset="0%" stop-color="rgba(0,0,0,0)"></stop>
    <stop offset="85%" stop-color="rgba(0,0,0,0)"></stop>
    <stop offset="100%" stop-color="rgba(42,31,20,0.18)"></stop>
  </radialGradient>
  <radialGradient id="ambBroth" cx="50%" cy="40%" r="55%">
    <stop offset="0%" stop-color="#E8B870"></stop>
    <stop offset="100%" stop-color="#A87A3E"></stop>
  </radialGradient>
  <radialGradient id="misoBroth" cx="50%" cy="40%" r="55%">
    <stop offset="0%" stop-color="#D4A055"></stop>
    <stop offset="100%" stop-color="#7A4F1E"></stop>
  </radialGradient>
  <radialGradient id="redSauce" cx="50%" cy="40%" r="55%">
    <stop offset="0%" stop-color="#D86048"></stop>
    <stop offset="100%" stop-color="#8E2D1F"></stop>
  </radialGradient>
  <radialGradient id="lacquerSheen" cx="40%" cy="35%" r="60%">
    <stop offset="0%" stop-color="#5C3A28"></stop>
    <stop offset="100%" stop-color="#2A1810"></stop>
  </radialGradient>
</defs>
<rect width="800" height="800" fill="#F5EFE0"></rect>
<rect width="800" height="800" filter="url(#grain)"></rect>
<ellipse cx="400" cy="435.6" rx="332.8" ry="332.8" fill="rgba(42,31,20,0.12)" filter="url(#soft)"></ellipse>
<circle cx="400" cy="400" r="320" fill="#8B5E3C"></circle>
<circle cx="400" cy="400" r="305" fill="#D4B584"></circle>
<circle cx="400" cy="400" r="280" fill="#A88B5E"></circle>
<circle cx="400" cy="400" r="265" fill="#DDE4C8" opacity="0.4"></circle>

<path d="M425 400 Q 440 370, 460 385 T 495 400 Q 480 425, 460 412 T 425 400 Z" fill="#5A6A3D" opacity="0.85" transform="rotate(0 460 400)"></path><path d="M437.59814604734805 482.6408445654322 Q 452.59814604734805 452.6408445654322, 472.59814604734805 467.6408445654322 T 507.59814604734805 482.6408445654322 Q 492.59814604734805 507.6408445654322, 472.59814604734805 494.6408445654322 T 437.59814604734805 482.6408445654322 Z" fill="#7A9B6C" opacity="0.85" transform="rotate(30 472.59814604734805 482.6408445654322)"></path><path d="M344.3848809127161 558.6663696723949 Q 359.3848809127161 528.6663696723949, 379.3848809127161 543.6663696723949 T 414.3848809127161 558.6663696723949 Q 399.3848809127161 583.6663696723949, 379.3848809127161 570.6663696723949 T 344.3848809127161 558.6663696723949 Z" fill="#5A6A3D" opacity="0.85" transform="rotate(60 379.3848809127161 558.6663696723949)"></path><path d="M315.1967878858867 433.461023043485 Q 330.1967878858867 403.461023043485, 350.1967878858867 418.461023043485 T 385.1967878858867 433.461023043485 Q 370.1967878858867 458.461023043485, 350.1967878858867 445.461023043485 T 315.1967878858867 433.461023043485 Z" fill="#7A9B6C" opacity="0.85" transform="rotate(90 350.1967878858867 433.461023043485)"></path><path d="M258.6521988162593 371.89047877704854 Q 273.6521988162593 341.89047877704854, 293.6521988162593 356.89047877704854 T 328.6521988162593 371.89047877704854 Q 313.6521988162593 396.89047877704854, 293.6521988162593 383.89047877704854 T 258.6521988162593 371.89047877704854 Z" fill="#5A6A3D" opacity="0.85" transform="rotate(120 293.6521988162593 371.89047877704854)"></path><path d="M293.62600161379316 256.80170268342664 Q 308.62600161379316 226.80170268342664, 328.62600161379316 241.80170268342664 T 363.62600161379316 256.80170268342664 Q 348.62600161379316 281.80170268342664, 328.62600161379316 268.80170268342664 T 293.62600161379316 256.80170268342664 Z" fill="#7A9B6C" opacity="0.85" transform="rotate(150 328.62600161379316 256.80170268342664)"></path><path d="M387.6786645627788 344.45111906033605 Q 402.6786645627788 314.45111906033605, 422.6786645627788 329.45111906033605 T 457.6786645627788 344.45111906033605 Q 442.6786645627788 369.45111906033605, 422.6786645627788 356.45111906033605 T 387.6786645627788 344.45111906033605 Z" fill="#5A6A3D" opacity="0.85" transform="rotate(180 422.6786645627788 344.45111906033605)"></path><path d="M468.950590626765 364.02397036432853 Q 483.950590626765 334.02397036432853, 503.950590626765 349.02397036432853 T 538.950590626765 364.02397036432853 Q 523.950590626765 389.02397036432853, 503.950590626765 376.02397036432853 T 468.950590626765 364.02397036432853 Z" fill="#7A9B6C" opacity="0.85" transform="rotate(210 503.950590626765 364.02397036432853)"></path><path d="M504.103598455972 479.0581361821773 Q 519.103598455972 449.0581361821773, 539.103598455972 464.0581361821773 T 574.103598455972 479.0581361821773 Q 559.103598455972 504.0581361821773, 539.103598455972 491.0581361821773 T 504.103598455972 479.0581361821773 Z" fill="#5A6A3D" opacity="0.85" transform="rotate(240 539.103598455972 479.0581361821773)"></path><path d="M377.1542007246167 458.756066961172 Q 392.1542007246167 428.756066961172, 412.1542007246167 443.756066961172 T 447.1542007246167 458.756066961172 Q 432.1542007246167 483.756066961172, 412.1542007246167 470.756066961172 T 377.1542007246167 458.756066961172 Z" fill="#7A9B6C" opacity="0.85" transform="rotate(270 412.1542007246167 458.756066961172)"></path><path d="M298.77869070466943 487.8335823885839 Q 313.77869070466943 457.8335823885839, 333.77869070466943 472.8335823885839 T 368.77869070466943 487.8335823885839 Q 353.77869070466943 512.8335823885839, 333.77869070466943 499.8335823885839 T 298.77869070466943 487.8335823885839 Z" fill="#5A6A3D" opacity="0.85" transform="rotate(300 333.77869070466943 487.8335823885839)"></path><path d="M205.4471310615661 411.95332646232555 Q 220.4471310615661 381.95332646232555, 240.4471310615661 396.95332646232555 T 275.4471310615661 411.95332646232555 Q 260.4471310615661 436.95332646232555, 240.4471310615661 423.95332646232555 T 205.4471310615661 411.95332646232555 Z" fill="#7A9B6C" opacity="0.85" transform="rotate(330 240.4471310615661 411.95332646232555)"></path><path d="M322.144060878368 358.0075187443875 Q 337.144060878368 328.0075187443875, 357.144060878368 343.0075187443875 T 392.144060878368 358.0075187443875 Q 377.144060878368 383.0075187443875, 357.144060878368 370.0075187443875 T 322.144060878368 358.0075187443875 Z" fill="#5A6A3D" opacity="0.85" transform="rotate(0 357.144060878368 358.0075187443875)"></path><path d="M370.98387315022336 290.162878487635 Q 385.98387315022336 260.162878487635, 405.98387315022336 275.162878487635 T 440.98387315022336 290.162878487635 Q 425.98387315022336 315.162878487635, 405.98387315022336 302.162878487635 T 370.98387315022336 290.162878487635 Z" fill="#7A9B6C" opacity="0.85" transform="rotate(30 405.98387315022336 290.162878487635)"></path>

<circle cx="340" cy="350" r="26" fill="#C86050"></circle>
<circle cx="334" cy="343" r="8" fill="#F2D9CC" opacity="0.7"></circle>
<circle cx="470" cy="380" r="28" fill="#B83D2E"></circle>
<circle cx="464" cy="373" r="9" fill="#E8A8A0" opacity="0.6"></circle>
<circle cx="380" cy="470" r="22" fill="#C86050"></circle>

<g>
  <circle cx="455" cy="450" r="26" fill="#DDE4C8" stroke="#7A9B6C" stroke-width="2"></circle>
  <circle cx="455" cy="450" r="18" fill="#7A9B6C" opacity="0.3"></circle>
  <circle cx="310" cy="430" r="24" fill="#DDE4C8" stroke="#7A9B6C" stroke-width="2"></circle>
</g>

<g stroke="#D4A55E" stroke-width="6" stroke-linecap="round" fill="none">
  <path d="M420 340 L 440 360"></path>
  <path d="M430 335 L 455 350"></path>
  <path d="M350 410 L 370 415"></path>
  <path d="M480 320 L 500 332"></path>
</g>

<g stroke="#F8F2E0" stroke-width="3" stroke-linecap="round">
  <path d="M395 460 Q 400 480 405 460"></path>
  <path d="M410 460 Q 415 480 420 460"></path>
  <path d="M425 460 Q 430 480 435 460"></path>
</g></svg>