<svg xmlns="http://www.w3.org/2000/svg" viewBox="0 0 800 800" width="800" height="800">

<defs>
  <filter id="grain" x="0" y="0" width="100%" height="100%">
    <feTurbulence baseFrequency="0.85" numOctaves="2" stitchTiles="stitch" seed="3"></feTurbulence>
    <feColorMatrix values="0 0 0 0 0.16  0 0 0 0 0.12  0 0 0 0 0.08  0 0 0 0.05 0"></feColorMatrix>
  </filter>
  <filter id="soft" x="-10%" y="-10%" width="120%" height="120%">
    <feGaussianBlur stdDeviation="0.6"></feGaussianBlur>
  </filter>
  <radialGradient id="bowlShadow" cx="50%" cy="50%" r="50%">
    <stop offset="0%" stop-color="rgba(0,0,0,0)"></stop>
    <stop offset="85%" stop-color="rgba(0,0,0,0)"></stop>
    <stop offset="100%" stop-color="rgba(42,31,20,0.18)"></stop>
  </radialGradient>
  <radialGradient id="ambBroth" cx="50%" cy="40%" r="55%">
    <stop offset="0%" stop-color="#E8B870"></stop>
    <stop offset="100%" stop-color="#A87A3E"></stop>
  </radialGradient>
  <radialGradient id="misoBroth" cx="50%" cy="40%" r="55%">
    <stop offset="0%" stop-color="#D4A055"></stop>
    <stop offset="100%" stop-color="#7A4F1E"></stop>
  </radialGradient>
  <radialGradient id="redSauce" cx="50%" cy="40%" r="55%">
    <stop offset="0%" stop-color="#D86048"></stop>
    <stop offset="100%" stop-color="#8E2D1F"></stop>
  </radialGradient>
  <radialGradient id="lacquerSheen" cx="40%" cy="35%" r="60%">
    <stop offset="0%" stop-color="#5C3A28"></stop>
    <stop offset="100%" stop-color="#2A1810"></stop>
  </radialGradient>
</defs>
<rect width="800" height="800" fill="#F5EFE0"></rect>
<rect width="800" height="800" filter="url(#grain)"></rect>

<ellipse cx="400" cy="426.4" rx="343.2" ry="343.2" fill="rgba(42,31,20,0.12)" filter="url(#soft)"></ellipse>
<circle cx="400" cy="400" r="330" fill="#F2DDB0" stroke="#F2DDB0" stroke-width="2"></circle>
<circle cx="400" cy="400" r="283.8" fill="none" stroke="#F2DDB0" stroke-width="1.5" opacity="0.6"></circle>
<circle cx="400" cy="400" r="330" fill="url(#bowlShadow)"></circle>

<ellipse cx="420" cy="380" rx="160" ry="100" fill="#A14A2A"></ellipse>
<ellipse cx="420" cy="380" rx="140" ry="84" fill="#C86050"></ellipse>
<ellipse cx="430" cy="370" rx="80" ry="40" fill="#A14A2A" opacity="0.5"></ellipse>

<path d="M310 350 L 510 360" stroke="#3E2418" stroke-width="5" stroke-linecap="round" opacity="0.6"></path>
<path d="M310 390 L 520 400" stroke="#3E2418" stroke-width="5" stroke-linecap="round" opacity="0.6"></path>
<path d="M315 430 L 525 440" stroke="#3E2418" stroke-width="5" stroke-linecap="round" opacity="0.6"></path>

<path d="M311.6 490.0 L309.6 502.3 L302.8 512.9 L293.8 521.1 L285.3 528.0 L278.1 535.4 L271.0 543.7 L262.4 551.4 L251.7 556.4 L240.0 557.3 L228.6 554.9 L217.8 551.0 L207.2 546.8 L196.8 541.5 L187.5 534.0 L181.4 523.8 L179.3 512.1 L180.2 500.5 L181.6 490.0 L181.6 479.7 L180.6 468.4 L181.2 456.1 L185.7 444.4 L194.5 435.8 L206.0 431.1 L217.9 429.3 L229.1 428.3 L240.0 427.3 L251.1 426.9 L262.2 428.9 L272.2 434.2 L280.3 442.0 L287.1 450.5 L294.0 458.8 L301.5 467.6 L308.3 478.0 L311.6 490.0 Z" fill="#F8F2E0"></path>
<path d="M294.7 485.0 L293.3 493.5 L288.5 500.8 L282.2 506.5 L276.2 511.2 L271.3 516.3 L266.4 522.1 L260.5 527.5 L253.1 531.0 L245.0 531.6 L237.1 529.9 L229.6 527.3 L222.3 524.3 L215.0 520.7 L208.6 515.5 L204.4 508.4 L203.0 500.3 L203.7 492.3 L204.7 485.0 L204.7 477.9 L203.9 470.1 L204.2 461.5 L207.3 453.4 L213.4 447.4 L221.4 444.1 L229.7 443.0 L237.5 442.4 L245.0 441.6 L252.7 441.3 L260.4 442.7 L267.3 446.4 L272.9 451.8 L277.6 457.7 L282.3 463.4 L287.6 469.5 L292.4 476.7 L294.7 485.0 Z" fill="#F2DDB0" opacity="0.6"></path>
<circle cx="240" cy="480" r="10" fill="#D4A55E"></circle>

<g transform="translate(530 510)">
  <path d="M40.5 0.0 L41.4 7.3 L39.2 14.3 L34.0 19.6 L27.5 23.1 L21.5 25.7 L16.7 28.9 L12.1 33.3 L6.7 37.8 L0.0 40.5 L-7.1 40.2 L-13.6 37.3 L-19.2 33.2 L-24.3 29.0 L-29.4 24.7 L-34.0 19.6 L-36.8 13.4 L-37.2 6.6 L-35.5 0.0 L-33.4 -5.9 L-32.2 -11.7 L-31.8 -18.4 L-30.7 -25.8 L-27.3 -32.6 L-21.3 -36.9 L-13.9 -38.2 L-6.5 -37.1 L-0.0 -35.5 L6.1 -34.6 L12.4 -34.1 L18.8 -32.6 L24.5 -29.3 L28.8 -24.2 L31.8 -18.4 L34.6 -12.6 L37.7 -6.6 L40.5 -0.0 Z" fill="#5A6A3D"></path>
  <circle cx="-15" cy="-12" r="14" fill="#7A9B6C"></circle>
  <circle cx="14" cy="-8" r="13" fill="#7A9B6C"></circle>
  <circle cx="0" cy="15" r="14" fill="#7A9B6C"></circle>
  <rect x="-6" y="20" width="12" height="20" fill="#5A6A3D"></rect>
</g>
<g transform="translate(280 320)">
  <path d="M38.5 0.0 L39.5 7.0 L37.3 13.6 L32.3 18.6 L26.0 21.8 L20.2 24.1 L15.7 27.1 L11.4 31.4 L6.3 35.8 L0.0 38.5 L-6.7 38.3 L-12.9 35.5 L-18.2 31.5 L-23.0 27.4 L-27.9 23.4 L-32.3 18.6 L-35.0 12.7 L-35.2 6.2 L-33.5 0.0 L-31.4 -5.5 L-30.3 -11.0 L-30.1 -17.4 L-29.2 -24.5 L-26.0 -31.0 L-20.3 -35.2 L-13.2 -36.3 L-6.2 -35.1 L-0.0 -33.5 L5.8 -32.6 L11.7 -32.2 L17.8 -30.9 L23.3 -27.7 L27.3 -22.9 L30.1 -17.4 L32.7 -11.9 L35.7 -6.3 L38.5 -0.0 Z" fill="#5A6A3D"></path>
  <circle cx="-13" cy="-10" r="13" fill="#7A9B6C"></circle>
  <circle cx="14" cy="-6" r="12" fill="#7A9B6C"></circle>
  <circle cx="-2" cy="13" r="13" fill="#7A9B6C"></circle>
</g>

<path d="M530 350 Q 580 370 570 410 Q 555 430 540 415" fill="none" stroke="#5C3A1F" stroke-width="4" opacity="0.6" stroke-linecap="round"></path></svg>