<svg xmlns="http://www.w3.org/2000/svg" viewBox="0 0 800 800" width="800" height="800">

<defs>
  <filter id="grain" x="0" y="0" width="100%" height="100%">
    <feTurbulence baseFrequency="0.85" numOctaves="2" stitchTiles="stitch" seed="3"></feTurbulence>
    <feColorMatrix values="0 0 0 0 0.16  0 0 0 0 0.12  0 0 0 0 0.08  0 0 0 0.05 0"></feColorMatrix>
  </filter>
  <filter id="soft" x="-10%" y="-10%" width="120%" height="120%">
    <feGaussianBlur stdDeviation="0.6"></feGaussianBlur>
  </filter>
  <radialGradient id="bowlShadow" cx="50%" cy="50%" r="50%">
    <stop offset="0%" stop-color="rgba(0,0,0,0)"></stop>
    <stop offset="85%" stop-color="rgba(0,0,0,0)"></stop>
    <stop offset="100%" stop-color="rgba(42,31,20,0.18)"></stop>
  </radialGradient>
  <radialGradient id="ambBroth" cx="50%" cy="40%" r="55%">
    <stop offset="0%" stop-color="#E8B870"></stop>
    <stop offset="100%" stop-color="#A87A3E"></stop>
  </radialGradient>
  <radialGradient id="misoBroth" cx="50%" cy="40%" r="55%">
    <stop offset="0%" stop-color="#D4A055"></stop>
    <stop offset="100%" stop-color="#7A4F1E"></stop>
  </radialGradient>
  <radialGradient id="redSauce" cx="50%" cy="40%" r="55%">
    <stop offset="0%" stop-color="#D86048"></stop>
    <stop offset="100%" stop-color="#8E2D1F"></stop>
  </radialGradient>
  <radialGradient id="lacquerSheen" cx="40%" cy="35%" r="60%">
    <stop offset="0%" stop-color="#5C3A28"></stop>
    <stop offset="100%" stop-color="#2A1810"></stop>
  </radialGradient>
</defs>
<rect width="800" height="800" fill="#F5EFE0"></rect>
<rect width="800" height="800" filter="url(#grain)"></rect>
<ellipse cx="400" cy="437.6" rx="291.2" ry="228.8" fill="rgba(42,31,20,0.12)" filter="url(#soft)"></ellipse>
<rect x="120" y="220" width="560" height="400" fill="#8B5E3C" rx="14"></rect>
<rect x="135" y="235" width="530" height="370" fill="#D4B584" rx="10"></rect>

<g stroke="#8B5E3C" stroke-width="1.5" opacity="0.3" fill="none">
  <path d="M135 280 Q 400 270 665 285"></path>
  <path d="M135 340 Q 400 335 665 345"></path>
  <path d="M135 420 Q 400 415 665 425"></path>
  <path d="M135 510 Q 400 505 665 515"></path>
</g>

<path d="M180 450 Q 150 410 175 370 Q 230 360 270 400 Q 280 460 230 480 Q 190 480 180 450 Z" fill="#3E5C30"></path>
<path d="M210 380 Q 220 430 240 460" stroke="#F5EFE0" stroke-width="1.5" fill="none" opacity="0.4"></path>

<g transform="translate(360 360)">
  <path d="M-65 -30 L 65 -30 Q 75 0, 65 30 L -65 30 Q -75 0, -65 -30 Z" fill="#E8A8A0"></path>
  <path d="M-65 -30 Q -50 -20, -55 0 Q -50 20, -65 30" stroke="#F8F2E0" stroke-width="3" fill="none"></path>
  <path d="M-30 -30 Q -15 -20, -20 0 Q -15 20, -30 30" stroke="#F8F2E0" stroke-width="3" fill="none"></path>
  <path d="M5 -30 Q 20 -20, 15 0 Q 20 20, 5 30" stroke="#F8F2E0" stroke-width="3" fill="none"></path>
  <path d="M40 -30 Q 55 -20, 50 0 Q 55 20, 40 30" stroke="#F8F2E0" stroke-width="3" fill="none"></path>
</g>
<g transform="translate(360 450)">
  <path d="M-65 -28 L 65 -28 Q 75 0, 65 28 L -65 28 Q -75 0, -65 -28 Z" fill="#C86050" opacity="0.85"></path>
  <path d="M-65 -28 Q -50 -18, -55 0 Q -50 18, -65 28" stroke="#F8F2E0" stroke-width="2.5" fill="none"></path>
  <path d="M-25 -28 Q -10 -18, -15 0 Q -10 18, -25 28" stroke="#F8F2E0" stroke-width="2.5" fill="none"></path>
  <path d="M15 -28 Q 30 -18, 25 0 Q 30 18, 15 28" stroke="#F8F2E0" stroke-width="2.5" fill="none"></path>
</g>

<g transform="translate(550 400)">
  <path d="M-55 -25 L 55 -25 Q 65 0, 55 25 L -55 25 Q -65 0, -55 -25 Z" fill="#F8F2E0"></path>
  <path d="M-55 -25 Q -40 -15, -45 0 Q -40 15, -55 25" stroke="#F2DDB0" stroke-width="2" fill="none"></path>
  <path d="M-20 -25 Q -5 -15, -10 0 Q -5 15, -20 25" stroke="#F2DDB0" stroke-width="2" fill="none"></path>
  <path d="M20 -25 Q 35 -15, 30 0 Q 35 15, 20 25" stroke="#F2DDB0" stroke-width="2" fill="none"></path>
</g>

<g transform="translate(220 540)">
  <ellipse cx="0" cy="6" rx="36" ry="6" fill="rgba(0,0,0,0.15)"></ellipse>
  <path d="M31.5 0.0 L32.0 5.6 L30.3 11.0 L26.6 15.4 L22.0 18.5 L17.5 20.9 L13.6 23.6 L9.7 26.7 L5.2 29.8 L0.0 31.5 L-5.5 31.2 L-10.6 29.2 L-15.1 26.2 L-19.2 22.9 L-23.2 19.4 L-26.6 15.4 L-28.9 10.5 L-29.4 5.2 L-28.5 0.0 L-27.1 -4.8 L-26.1 -9.5 L-25.3 -14.6 L-23.9 -20.1 L-21.0 -25.1 L-16.4 -28.4 L-10.8 -29.7 L-5.2 -29.3 L-0.0 -28.5 L4.9 -27.9 L9.9 -27.2 L14.9 -25.8 L19.4 -23.1 L22.8 -19.1 L25.3 -14.6 L27.5 -10.0 L29.7 -5.2 L31.5 -0.0 Z" fill="#5A6A3D"></path>
  <path d="M15.3 -3.0 L16.2 0.4 L15.6 3.8 L13.7 6.6 L11.0 8.7 L8.2 10.4 L5.6 11.9 L3.0 13.5 L0.1 14.7 L-3.0 15.0 L-6.1 14.3 L-8.9 13.1 L-11.5 11.8 L-14.4 10.6 L-17.4 9.1 L-20.1 6.9 L-21.6 3.8 L-21.7 0.3 L-20.7 -3.0 L-19.3 -5.9 L-18.2 -8.5 L-17.5 -11.4 L-16.6 -14.4 L-14.9 -17.2 L-12.4 -19.2 L-9.3 -20.3 L-6.1 -20.8 L-3.0 -21.0 L0.2 -21.2 L3.5 -20.8 L6.5 -19.4 L8.7 -17.0 L10.2 -14.0 L11.1 -11.1 L12.2 -8.5 L13.7 -6.0 L15.3 -3.0 Z" fill="#7A9B6C"></path>
</g>

<g stroke="#F8F2E0" stroke-width="3" fill="none" stroke-linecap="round">
  <path d="M280 280 Q 295 285 300 295"></path>
  <path d="M290 275 Q 305 282 312 295"></path>
  <path d="M270 290 Q 285 295 290 305"></path>
</g></svg>