<svg xmlns="http://www.w3.org/2000/svg" viewBox="0 0 800 800" width="800" height="800">

<defs>
  <filter id="grain" x="0" y="0" width="100%" height="100%">
    <feTurbulence baseFrequency="0.85" numOctaves="2" stitchTiles="stitch" seed="3"></feTurbulence>
    <feColorMatrix values="0 0 0 0 0.16  0 0 0 0 0.12  0 0 0 0 0.08  0 0 0 0.05 0"></feColorMatrix>
  </filter>
  <filter id="soft" x="-10%" y="-10%" width="120%" height="120%">
    <feGaussianBlur stdDeviation="0.6"></feGaussianBlur>
  </filter>
  <radialGradient id="bowlShadow" cx="50%" cy="50%" r="50%">
    <stop offset="0%" stop-color="rgba(0,0,0,0)"></stop>
    <stop offset="85%" stop-color="rgba(0,0,0,0)"></stop>
    <stop offset="100%" stop-color="rgba(42,31,20,0.18)"></stop>
  </radialGradient>
  <radialGradient id="ambBroth" cx="50%" cy="40%" r="55%">
    <stop offset="0%" stop-color="#E8B870"></stop>
    <stop offset="100%" stop-color="#A87A3E"></stop>
  </radialGradient>
  <radialGradient id="misoBroth" cx="50%" cy="40%" r="55%">
    <stop offset="0%" stop-color="#D4A055"></stop>
    <stop offset="100%" stop-color="#7A4F1E"></stop>
  </radialGradient>
  <radialGradient id="redSauce" cx="50%" cy="40%" r="55%">
    <stop offset="0%" stop-color="#D86048"></stop>
    <stop offset="100%" stop-color="#8E2D1F"></stop>
  </radialGradient>
  <radialGradient id="lacquerSheen" cx="40%" cy="35%" r="60%">
    <stop offset="0%" stop-color="#5C3A28"></stop>
    <stop offset="100%" stop-color="#2A1810"></stop>
  </radialGradient>
</defs>
<rect width="800" height="800" fill="#F5EFE0"></rect>
<rect width="800" height="800" filter="url(#grain)"></rect>
<ellipse cx="400" cy="435.6" rx="332.8" ry="332.8" fill="rgba(42,31,20,0.12)" filter="url(#soft)"></ellipse>
<circle cx="400" cy="400" r="320" fill="#3E2418"></circle>
<circle cx="400" cy="400" r="308" fill="#5C3A1F"></circle>
<circle cx="400" cy="400" r="280" fill="#F8F2E0"></circle>

<ellipse cx="400.0" cy="400.0" rx="6.5" ry="4" fill="#F8F2E0" stroke="#F2DDB0" stroke-width="0.8" transform="rotate(0 400.0 400.0)"></ellipse><ellipse cx="380.6" cy="417.8" rx="6.5" ry="4" fill="#F8F2E0" stroke="#F2DDB0" stroke-width="0.8" transform="rotate(79 380.6 417.8)"></ellipse><ellipse cx="403.3" cy="362.9" rx="6.5" ry="4" fill="#F8F2E0" stroke="#F2DDB0" stroke-width="0.8" transform="rotate(158 403.3 362.9)"></ellipse><ellipse cx="427.8" cy="436.2" rx="6.5" ry="4" fill="#F8F2E0" stroke="#F2DDB0" stroke-width="0.8" transform="rotate(57 427.8 436.2)"></ellipse><ellipse cx="348.1" cy="390.8" rx="6.5" ry="4" fill="#F8F2E0" stroke="#F2DDB0" stroke-width="0.8" transform="rotate(136 348.1 390.8)"></ellipse><ellipse cx="449.7" cy="368.4" rx="6.5" ry="4" fill="#F8F2E0" stroke="#F2DDB0" stroke-width="0.8" transform="rotate(35 449.7 368.4)"></ellipse><ellipse cx="383.2" cy="462.3" rx="6.5" ry="4" fill="#F8F2E0" stroke="#F2DDB0" stroke-width="0.8" transform="rotate(114 383.2 462.3)"></ellipse><ellipse cx="367.9" cy="338.1" rx="6.5" ry="4" fill="#F8F2E0" stroke="#F2DDB0" stroke-width="0.8" transform="rotate(13 367.9 338.1)"></ellipse><ellipse cx="470.0" cy="425.6" rx="6.5" ry="4" fill="#F8F2E0" stroke="#F2DDB0" stroke-width="0.8" transform="rotate(92 470.0 425.6)"></ellipse><ellipse cx="326.9" cy="430.2" rx="6.5" ry="4" fill="#F8F2E0" stroke="#F2DDB0" stroke-width="0.8" transform="rotate(171 326.9 430.2)"></ellipse><ellipse cx="435.3" cy="324.5" rx="6.5" ry="4" fill="#F8F2E0" stroke="#F2DDB0" stroke-width="0.8" transform="rotate(70 435.3 324.5)"></ellipse><ellipse cx="426.2" cy="483.4" rx="6.5" ry="4" fill="#F8F2E0" stroke="#F2DDB0" stroke-width="0.8" transform="rotate(149 426.2 483.4)"></ellipse><ellipse cx="321.0" cy="354.2" rx="6.5" ry="4" fill="#F8F2E0" stroke="#F2DDB0" stroke-width="0.8" transform="rotate(48 321.0 354.2)"></ellipse><ellipse cx="492.8" cy="379.6" rx="6.5" ry="4" fill="#F8F2E0" stroke="#F2DDB0" stroke-width="0.8" transform="rotate(127 492.8 379.6)"></ellipse><ellipse cx="343.3" cy="480.7" rx="6.5" ry="4" fill="#F8F2E0" stroke="#F2DDB0" stroke-width="0.8" transform="rotate(26 343.3 480.7)"></ellipse><ellipse cx="386.9" cy="298.8" rx="6.5" ry="4" fill="#F8F2E0" stroke="#F2DDB0" stroke-width="0.8" transform="rotate(105 386.9 298.8)"></ellipse><ellipse cx="480.6" cy="467.9" rx="6.5" ry="4" fill="#F8F2E0" stroke="#F2DDB0" stroke-width="0.8" transform="rotate(4 480.6 467.9)"></ellipse><ellipse cx="291.4" cy="404.5" rx="6.5" ry="4" fill="#F8F2E0" stroke="#F2DDB0" stroke-width="0.8" transform="rotate(83 291.4 404.5)"></ellipse><ellipse cx="479.2" cy="321.1" rx="6.5" ry="4" fill="#F8F2E0" stroke="#F2DDB0" stroke-width="0.8" transform="rotate(162 479.2 321.1)"></ellipse><ellipse cx="394.7" cy="514.7" rx="6.5" ry="4" fill="#F8F2E0" stroke="#F2DDB0" stroke-width="0.8" transform="rotate(61 394.7 514.7)"></ellipse><ellipse cx="324.5" cy="309.5" rx="6.5" ry="4" fill="#F8F2E0" stroke="#F2DDB0" stroke-width="0.8" transform="rotate(140 324.5 309.5)"></ellipse><ellipse cx="519.7" cy="416.1" rx="6.5" ry="4" fill="#F8F2E0" stroke="#F2DDB0" stroke-width="0.8" transform="rotate(39 519.7 416.1)"></ellipse><ellipse cx="298.5" cy="470.6" rx="6.5" ry="4" fill="#F8F2E0" stroke="#F2DDB0" stroke-width="0.8" transform="rotate(118 298.5 470.6)"></ellipse><ellipse cx="427.7" cy="276.7" rx="6.5" ry="4" fill="#F8F2E0" stroke="#F2DDB0" stroke-width="0.8" transform="rotate(17 427.7 276.7)"></ellipse><ellipse cx="464.2" cy="512.0" rx="6.5" ry="4" fill="#F8F2E0" stroke="#F2DDB0" stroke-width="0.8" transform="rotate(96 464.2 512.0)"></ellipse><ellipse cx="274.5" cy="360.0" rx="6.5" ry="4" fill="#F8F2E0" stroke="#F2DDB0" stroke-width="0.8" transform="rotate(175 274.5 360.0)"></ellipse><ellipse cx="522.0" cy="343.6" rx="6.5" ry="4" fill="#F8F2E0" stroke="#F2DDB0" stroke-width="0.8" transform="rotate(74 522.0 343.6)"></ellipse><ellipse cx="347.1" cy="526.3" rx="6.5" ry="4" fill="#F8F2E0" stroke="#F2DDB0" stroke-width="0.8" transform="rotate(153 347.1 526.3)"></ellipse><ellipse cx="352.8" cy="268.8" rx="6.5" ry="4" fill="#F8F2E0" stroke="#F2DDB0" stroke-width="0.8" transform="rotate(52 352.8 268.8)"></ellipse><ellipse cx="525.6" cy="466.0" rx="6.5" ry="4" fill="#F8F2E0" stroke="#F2DDB0" stroke-width="0.8" transform="rotate(131 525.6 466.0)"></ellipse><ellipse cx="260.4" cy="436.8" rx="6.5" ry="4" fill="#F8F2E0" stroke="#F2DDB0" stroke-width="0.8" transform="rotate(30 260.4 436.8)"></ellipse><ellipse cx="479.3" cy="276.6" rx="6.5" ry="4" fill="#F8F2E0" stroke="#F2DDB0" stroke-width="0.8" transform="rotate(109 479.3 276.6)"></ellipse><ellipse cx="425.3" cy="546.9" rx="6.5" ry="4" fill="#F8F2E0" stroke="#F2DDB0" stroke-width="0.8" transform="rotate(8 425.3 546.9)"></ellipse><ellipse cx="280.3" cy="307.3" rx="6.5" ry="4" fill="#F8F2E0" stroke="#F2DDB0" stroke-width="0.8" transform="rotate(87 280.3 307.3)"></ellipse><ellipse cx="553.1" cy="387.3" rx="6.5" ry="4" fill="#F8F2E0" stroke="#F2DDB0" stroke-width="0.8" transform="rotate(166 553.1 387.3)"></ellipse><ellipse cx="294.1" cy="514.5" rx="6.5" ry="4" fill="#F8F2E0" stroke="#F2DDB0" stroke-width="0.8" transform="rotate(65 294.1 514.5)"></ellipse><ellipse cx="400.8" cy="241.9" rx="6.5" ry="4" fill="#F8F2E0" stroke="#F2DDB0" stroke-width="0.8" transform="rotate(144 400.8 241.9)"></ellipse><ellipse cx="507.7" cy="518.7" rx="6.5" ry="4" fill="#F8F2E0" stroke="#F2DDB0" stroke-width="0.8" transform="rotate(43 507.7 518.7)"></ellipse><ellipse cx="238.2" cy="385.0" rx="6.5" ry="4" fill="#F8F2E0" stroke="#F2DDB0" stroke-width="0.8" transform="rotate(122 238.2 385.0)"></ellipse><ellipse cx="531.1" cy="300.5" rx="6.5" ry="4" fill="#F8F2E0" stroke="#F2DDB0" stroke-width="0.8" transform="rotate(21 531.1 300.5)"></ellipse><ellipse cx="370.2" cy="564.0" rx="6.5" ry="4" fill="#F8F2E0" stroke="#F2DDB0" stroke-width="0.8" transform="rotate(100 370.2 564.0)"></ellipse><ellipse cx="310.1" cy="257.2" rx="6.5" ry="4" fill="#F8F2E0" stroke="#F2DDB0" stroke-width="0.8" transform="rotate(179 310.1 257.2)"></ellipse><ellipse cx="564.7" cy="445.1" rx="6.5" ry="4" fill="#F8F2E0" stroke="#F2DDB0" stroke-width="0.8" transform="rotate(78 564.7 445.1)"></ellipse><ellipse cx="246.3" cy="478.9" rx="6.5" ry="4" fill="#F8F2E0" stroke="#F2DDB0" stroke-width="0.8" transform="rotate(157 246.3 478.9)"></ellipse><ellipse cx="460.7" cy="236.1" rx="6.5" ry="4" fill="#F8F2E0" stroke="#F2DDB0" stroke-width="0.8" transform="rotate(56 460.7 236.1)"></ellipse><ellipse cx="466.7" cy="563.7" rx="6.5" ry="4" fill="#F8F2E0" stroke="#F2DDB0" stroke-width="0.8" transform="rotate(135 466.7 563.7)"></ellipse><ellipse cx="238.5" cy="323.5" rx="6.5" ry="4" fill="#F8F2E0" stroke="#F2DDB0" stroke-width="0.8" transform="rotate(34 238.5 323.5)"></ellipse><ellipse cx="572.6" cy="346.7" rx="6.5" ry="4" fill="#F8F2E0" stroke="#F2DDB0" stroke-width="0.8" transform="rotate(113 572.6 346.7)"></ellipse><ellipse cx="307.7" cy="557.5" rx="6.5" ry="4" fill="#F8F2E0" stroke="#F2DDB0" stroke-width="0.8" transform="rotate(12 307.7 557.5)"></ellipse><ellipse cx="361.2" cy="219.7" rx="6.5" ry="4" fill="#F8F2E0" stroke="#F2DDB0" stroke-width="0.8" transform="rotate(91 361.2 219.7)"></ellipse><ellipse cx="551.9" cy="507.9" rx="6.5" ry="4" fill="#F8F2E0" stroke="#F2DDB0" stroke-width="0.8" transform="rotate(170 551.9 507.9)"></ellipse><ellipse cx="213.3" cy="423.3" rx="6.5" ry="4" fill="#F8F2E0" stroke="#F2DDB0" stroke-width="0.8" transform="rotate(69 213.3 423.3)"></ellipse><ellipse cx="523.1" cy="255.3" rx="6.5" ry="4" fill="#F8F2E0" stroke="#F2DDB0" stroke-width="0.8" transform="rotate(148 523.1 255.3)"></ellipse><ellipse cx="407.0" cy="591.7" rx="6.5" ry="4" fill="#F8F2E0" stroke="#F2DDB0" stroke-width="0.8" transform="rotate(47 407.0 591.7)"></ellipse><ellipse cx="264.1" cy="262.1" rx="6.5" ry="4" fill="#F8F2E0" stroke="#F2DDB0" stroke-width="0.8" transform="rotate(126 264.1 262.1)"></ellipse><ellipse cx="595.2" cy="409.9" rx="6.5" ry="4" fill="#F8F2E0" stroke="#F2DDB0" stroke-width="0.8" transform="rotate(25 595.2 409.9)"></ellipse><ellipse cx="248.0" cy="525.6" rx="6.5" ry="4" fill="#F8F2E0" stroke="#F2DDB0" stroke-width="0.8" transform="rotate(104 248.0 525.6)"></ellipse><ellipse cx="427.5" cy="202.9" rx="6.5" ry="4" fill="#F8F2E0" stroke="#F2DDB0" stroke-width="0.8" transform="rotate(3 427.5 202.9)"></ellipse><ellipse cx="513.8" cy="565.3" rx="6.5" ry="4" fill="#F8F2E0" stroke="#F2DDB0" stroke-width="0.8" transform="rotate(82 513.8 565.3)"></ellipse><ellipse cx="202.7" cy="354.6" rx="6.5" ry="4" fill="#F8F2E0" stroke="#F2DDB0" stroke-width="0.8" transform="rotate(161 202.7 354.6)"></ellipse><ellipse cx="577.6" cy="299.3" rx="6.5" ry="4" fill="#F8F2E0" stroke="#F2DDB0" stroke-width="0.8" transform="rotate(60 577.6 299.3)"></ellipse><ellipse cx="336.5" cy="595.8" rx="6.5" ry="4" fill="#F8F2E0" stroke="#F2DDB0" stroke-width="0.8" transform="rotate(139 336.5 595.8)"></ellipse><ellipse cx="313.9" cy="211.2" rx="6.5" ry="4" fill="#F8F2E0" stroke="#F2DDB0" stroke-width="0.8" transform="rotate(38 313.9 211.2)"></ellipse><ellipse cx="592.6" cy="481.7" rx="6.5" ry="4" fill="#F8F2E0" stroke="#F2DDB0" stroke-width="0.8" transform="rotate(117 592.6 481.7)"></ellipse><ellipse cx="201.3" cy="470.4" rx="6.5" ry="4" fill="#F8F2E0" stroke="#F2DDB0" stroke-width="0.8" transform="rotate(16 201.3 470.4)"></ellipse><ellipse cx="499.7" cy="212.4" rx="6.5" ry="4" fill="#F8F2E0" stroke="#F2DDB0" stroke-width="0.8" transform="rotate(95 499.7 212.4)"></ellipse><ellipse cx="453.6" cy="607.3" rx="6.5" ry="4" fill="#F8F2E0" stroke="#F2DDB0" stroke-width="0.8" transform="rotate(174 453.6 607.3)"></ellipse><ellipse cx="219.1" cy="282.5" rx="6.5" ry="4" fill="#F8F2E0" stroke="#F2DDB0" stroke-width="0.8" transform="rotate(73 219.1 282.5)"></ellipse><ellipse cx="614.3" cy="364.2" rx="6.5" ry="4" fill="#F8F2E0" stroke="#F2DDB0" stroke-width="0.8" transform="rotate(152 614.3 364.2)"></ellipse><ellipse cx="265.2" cy="572.4" rx="6.5" ry="4" fill="#F8F2E0" stroke="#F2DDB0" stroke-width="0.8" transform="rotate(51 265.2 572.4)"></ellipse><ellipse cx="382.8" cy="180.2" rx="6.5" ry="4" fill="#F8F2E0" stroke="#F2DDB0" stroke-width="0.8" transform="rotate(130 382.8 180.2)"></ellipse><ellipse cx="562.3" cy="551.5" rx="6.5" ry="4" fill="#F8F2E0" stroke="#F2DDB0" stroke-width="0.8" transform="rotate(29 562.3 551.5)"></ellipse><ellipse cx="176.4" cy="397.9" rx="6.5" ry="4" fill="#F8F2E0" stroke="#F2DDB0" stroke-width="0.8" transform="rotate(108 176.4 397.9)"></ellipse><ellipse cx="567.5" cy="249.5" rx="6.5" ry="4" fill="#F8F2E0" stroke="#F2DDB0" stroke-width="0.8" transform="rotate(7 567.5 249.5)"></ellipse><ellipse cx="378.0" cy="625.6" rx="6.5" ry="4" fill="#F8F2E0" stroke="#F2DDB0" stroke-width="0.8" transform="rotate(86 378.0 625.6)"></ellipse><ellipse cx="262.9" cy="217.6" rx="6.5" ry="4" fill="#F8F2E0" stroke="#F2DDB0" stroke-width="0.8" transform="rotate(165 262.9 217.6)"></ellipse><ellipse cx="625.8" cy="442.2" rx="6.5" ry="4" fill="#F8F2E0" stroke="#F2DDB0" stroke-width="0.8" transform="rotate(64 625.8 442.2)"></ellipse><ellipse cx="203.7" cy="522.3" rx="6.5" ry="4" fill="#F8F2E0" stroke="#F2DDB0" stroke-width="0.8" transform="rotate(143 203.7 522.3)"></ellipse><ellipse cx="462.6" cy="175.8" rx="6.5" ry="4" fill="#F8F2E0" stroke="#F2DDB0" stroke-width="0.8" transform="rotate(42 462.6 175.8)"></ellipse><ellipse cx="506.0" cy="608.9" rx="6.5" ry="4" fill="#F8F2E0" stroke="#F2DDB0" stroke-width="0.8" transform="rotate(121 506.0 608.9)"></ellipse><ellipse cx="179.4" cy="317.0" rx="6.5" ry="4" fill="#F8F2E0" stroke="#F2DDB0" stroke-width="0.8" transform="rotate(20 179.4 317.0)"></ellipse><ellipse cx="620.1" cy="311.6" rx="6.5" ry="4" fill="#F8F2E0" stroke="#F2DDB0" stroke-width="0.8" transform="rotate(99 620.1 311.6)"></ellipse><ellipse cx="296.8" cy="615.2" rx="6.5" ry="4" fill="#F8F2E0" stroke="#F2DDB0" stroke-width="0.8" transform="rotate(178 296.8 615.2)"></ellipse><ellipse cx="330.3" cy="170.3" rx="6.5" ry="4" fill="#F8F2E0" stroke="#F2DDB0" stroke-width="0.8" transform="rotate(77 330.3 170.3)"></ellipse><ellipse cx="607.8" cy="523.1" rx="6.5" ry="4" fill="#F8F2E0" stroke="#F2DDB0" stroke-width="0.8" transform="rotate(156 607.8 523.1)"></ellipse><ellipse cx="162.2" cy="449.9" rx="6.5" ry="4" fill="#F8F2E0" stroke="#F2DDB0" stroke-width="0.8" transform="rotate(55 162.2 449.9)"></ellipse><ellipse cx="542.4" cy="201.4" rx="6.5" ry="4" fill="#F8F2E0" stroke="#F2DDB0" stroke-width="0.8" transform="rotate(134 542.4 201.4)"></ellipse><ellipse cx="429.3" cy="644.0" rx="6.5" ry="4" fill="#F8F2E0" stroke="#F2DDB0" stroke-width="0.8" transform="rotate(33 429.3 644.0)"></ellipse><ellipse cx="212.5" cy="238.9" rx="6.5" ry="4" fill="#F8F2E0" stroke="#F2DDB0" stroke-width="0.8" transform="rotate(112 212.5 238.9)"></ellipse><ellipse cx="648.5" cy="392.1" rx="6.5" ry="4" fill="#F8F2E0" stroke="#F2DDB0" stroke-width="0.8" transform="rotate(11 648.5 392.1)"></ellipse>

<g>
  <ellipse cx="370" cy="370" rx="80" ry="50" fill="#C86050" opacity="0.92"></ellipse>
  <ellipse cx="430" cy="420" rx="90" ry="55" fill="#A14A2A" opacity="0.9"></ellipse>
  <ellipse cx="360" cy="430" rx="60" ry="38" fill="#C86050" opacity="0.85"></ellipse>
  <ellipse cx="450" cy="350" rx="55" ry="34" fill="#A14A2A" opacity="0.8"></ellipse>
  
  <ellipse cx="370" cy="395" rx="50" ry="8" fill="#F8F2E0" opacity="0.85" transform="rotate(-15 370 395)"></ellipse>
  <ellipse cx="430" cy="395" rx="48" ry="8" fill="#F8F2E0" opacity="0.85" transform="rotate(20 430 395)"></ellipse>
</g>

<circle cx="400" cy="395" r="55" fill="#F5C53C" stroke="#D4A55E" stroke-width="2"></circle>
<circle cx="400" cy="395" r="44" fill="#F5C53C"></circle>
<ellipse cx="390" cy="385" rx="14" ry="8" fill="#F2DDB0" opacity="0.7"></ellipse>

<circle cx="400.0" cy="410.0" r="6" fill="#7A9B6C"></circle><circle cx="400.0" cy="410.0" r="2.4" fill="#DDE4C8"></circle><circle cx="394.1" cy="455.6" r="6" fill="#7A9B6C"></circle><circle cx="394.1" cy="455.6" r="2.4" fill="#DDE4C8"></circle><circle cx="337.2" cy="393.4" r="6" fill="#7A9B6C"></circle><circle cx="337.2" cy="393.4" r="2.4" fill="#DDE4C8"></circle><circle cx="430.1" cy="336.3" r="6" fill="#7A9B6C"></circle><circle cx="430.1" cy="336.3" r="2.4" fill="#DDE4C8"></circle><circle cx="479.9" cy="455.4" r="6" fill="#7A9B6C"></circle><circle cx="479.9" cy="455.4" r="2.4" fill="#DDE4C8"></circle><circle cx="338.1" cy="492.1" r="6" fill="#7A9B6C"></circle><circle cx="338.1" cy="492.1" r="2.4" fill="#DDE4C8"></circle><circle cx="319.6" cy="331.2" r="6" fill="#7A9B6C"></circle><circle cx="319.6" cy="331.2" r="2.4" fill="#DDE4C8"></circle><circle cx="495.6" cy="334.8" r="6" fill="#7A9B6C"></circle><circle cx="495.6" cy="334.8" r="2.4" fill="#DDE4C8"></circle></svg>