<svg xmlns="http://www.w3.org/2000/svg" viewBox="0 0 800 800" width="800" height="800">

<defs>
  <filter id="grain" x="0" y="0" width="100%" height="100%">
    <feTurbulence baseFrequency="0.85" numOctaves="2" stitchTiles="stitch" seed="3"></feTurbulence>
    <feColorMatrix values="0 0 0 0 0.16  0 0 0 0 0.12  0 0 0 0 0.08  0 0 0 0.05 0"></feColorMatrix>
  </filter>
  <filter id="soft" x="-10%" y="-10%" width="120%" height="120%">
    <feGaussianBlur stdDeviation="0.6"></feGaussianBlur>
  </filter>
  <radialGradient id="bowlShadow" cx="50%" cy="50%" r="50%">
    <stop offset="0%" stop-color="rgba(0,0,0,0)"></stop>
    <stop offset="85%" stop-color="rgba(0,0,0,0)"></stop>
    <stop offset="100%" stop-color="rgba(42,31,20,0.18)"></stop>
  </radialGradient>
  <radialGradient id="ambBroth" cx="50%" cy="40%" r="55%">
    <stop offset="0%" stop-color="#E8B870"></stop>
    <stop offset="100%" stop-color="#A87A3E"></stop>
  </radialGradient>
  <radialGradient id="misoBroth" cx="50%" cy="40%" r="55%">
    <stop offset="0%" stop-color="#D4A055"></stop>
    <stop offset="100%" stop-color="#7A4F1E"></stop>
  </radialGradient>
  <radialGradient id="redSauce" cx="50%" cy="40%" r="55%">
    <stop offset="0%" stop-color="#D86048"></stop>
    <stop offset="100%" stop-color="#8E2D1F"></stop>
  </radialGradient>
  <radialGradient id="lacquerSheen" cx="40%" cy="35%" r="60%">
    <stop offset="0%" stop-color="#5C3A28"></stop>
    <stop offset="100%" stop-color="#2A1810"></stop>
  </radialGradient>
</defs>
<rect width="800" height="800" fill="#F5EFE0"></rect>
<rect width="800" height="800" filter="url(#grain)"></rect>

<ellipse cx="400" cy="425.6" rx="332.8" ry="332.8" fill="rgba(42,31,20,0.12)" filter="url(#soft)"></ellipse>
<circle cx="400" cy="400" r="320" fill="#FFFDF7" stroke="#F2DDB0" stroke-width="2"></circle>
<circle cx="400" cy="400" r="275.2" fill="none" stroke="#F2DDB0" stroke-width="1.5" opacity="0.6"></circle>
<circle cx="400" cy="400" r="320" fill="url(#bowlShadow)"></circle>

<path d="M574.6 400.0 L569.9 430.0 L560.3 458.3 L548.2 485.6 L533.8 512.3 L515.5 537.6 L491.6 558.7 L462.5 571.8 L431.0 575.8 L400.0 572.4 L370.8 565.3 L342.8 557.1 L314.9 547.5 L287.7 533.8 L263.8 514.3 L245.8 489.0 L234.2 460.4 L227.6 430.4 L224.6 400.0 L225.2 369.2 L231.4 338.6 L245.1 310.6 L265.7 287.3 L290.5 269.5 L316.6 255.6 L342.8 243.0 L370.2 231.1 L400.0 222.4 L431.6 220.6 L462.5 228.3 L489.9 244.4 L512.7 265.7 L531.9 289.3 L548.9 314.0 L563.1 340.6 L572.3 369.6 L574.6 400.0 Z" fill="#8B5E3C"></path>
<path d="M533.2 395.0 L531.9 419.1 L529.1 443.8 L522.1 468.4 L509.3 490.9 L490.7 509.1 L468.5 522.3 L444.6 531.3 L420.1 537.5 L395.0 540.7 L369.5 539.4 L345.0 532.3 L323.1 519.5 L304.5 502.8 L288.3 484.5 L273.1 465.4 L258.9 444.5 L248.0 420.9 L243.2 395.0 L246.3 368.8 L256.5 344.6 L271.0 323.4 L287.1 304.5 L304.3 286.9 L323.5 271.1 L345.4 258.8 L369.8 251.9 L395.0 250.7 L419.9 253.8 L444.2 259.8 L468.1 268.3 L490.9 280.7 L510.4 298.1 L524.2 320.4 L531.5 345.3 L533.5 370.6 L533.2 395.0 Z" fill="#5C3A1F" opacity="0.7"></path>

<circle cx="400.0" cy="400.0" r="5" fill="#5C3A1F"></circle><circle cx="384.8" cy="414.0" r="5" fill="#8B5E3C"></circle><circle cx="402.6" cy="370.9" r="5" fill="#5C3A1F"></circle><circle cx="421.8" cy="428.4" r="5" fill="#8B5E3C"></circle><circle cx="359.3" cy="392.8" r="5" fill="#5C3A1F"></circle><circle cx="439.0" cy="375.2" r="5" fill="#8B5E3C"></circle><circle cx="386.9" cy="448.9" r="5" fill="#5C3A1F"></circle><circle cx="374.8" cy="351.5" r="5" fill="#8B5E3C"></circle><circle cx="454.9" cy="420.0" r="5" fill="#5C3A1F"></circle><circle cx="342.7" cy="423.6" r="5" fill="#8B5E3C"></circle><circle cx="427.7" cy="340.8" r="5" fill="#5C3A1F"></circle><circle cx="420.5" cy="465.4" r="5" fill="#8B5E3C"></circle><circle cx="338.1" cy="364.1" r="5" fill="#5C3A1F"></circle><circle cx="472.7" cy="384.0" r="5" fill="#8B5E3C"></circle><circle cx="355.6" cy="463.2" r="5" fill="#5C3A1F"></circle><circle cx="389.7" cy="320.7" r="5" fill="#8B5E3C"></circle><circle cx="463.2" cy="453.2" r="5" fill="#5C3A1F"></circle><circle cx="314.9" cy="403.5" r="5" fill="#8B5E3C"></circle><circle cx="462.1" cy="338.2" r="5" fill="#5C3A1F"></circle><circle cx="395.8" cy="489.9" r="5" fill="#8B5E3C"></circle><circle cx="340.8" cy="329.1" r="5" fill="#5C3A1F"></circle><circle cx="493.8" cy="412.6" r="5" fill="#8B5E3C"></circle><circle cx="320.5" cy="455.3" r="5" fill="#5C3A1F"></circle><circle cx="421.7" cy="303.4" r="5" fill="#8B5E3C"></circle><circle cx="450.3" cy="487.8" r="5" fill="#5C3A1F"></circle><circle cx="301.6" cy="368.6" r="5" fill="#8B5E3C"></circle><circle cx="495.6" cy="355.8" r="5" fill="#5C3A1F"></circle><circle cx="358.6" cy="499.0" r="5" fill="#8B5E3C"></circle><circle cx="363.0" cy="297.2" r="5" fill="#5C3A1F"></circle><circle cx="498.5" cy="451.7" r="5" fill="#8B5E3C"></circle><circle cx="290.6" cy="428.8" r="5" fill="#5C3A1F"></circle><circle cx="462.2" cy="303.3" r="5" fill="#8B5E3C"></circle><circle cx="419.8" cy="515.2" r="5" fill="#5C3A1F"></circle><circle cx="306.2" cy="327.4" r="5" fill="#8B5E3C"></circle><circle cx="520.0" cy="390.0" r="5" fill="#5C3A1F"></circle><circle cx="317.0" cy="489.7" r="5" fill="#8B5E3C"></circle><circle cx="400.6" cy="276.1" r="5" fill="#5C3A1F"></circle><circle cx="484.4" cy="493.0" r="5" fill="#8B5E3C"></circle><circle cx="273.2" cy="388.3" r="5" fill="#5C3A1F"></circle><circle cx="502.7" cy="322.0" r="5" fill="#8B5E3C"></circle><circle cx="376.6" cy="528.5" r="5" fill="#5C3A1F"></circle><circle cx="329.5" cy="288.1" r="5" fill="#8B5E3C"></circle><circle cx="529.1" cy="435.4" r="5" fill="#5C3A1F"></circle><circle cx="279.5" cy="461.9" r="5" fill="#8B5E3C"></circle><circle cx="447.6" cy="271.5" r="5" fill="#5C3A1F"></circle><circle cx="452.3" cy="528.3" r="5" fill="#8B5E3C"></circle><circle cx="273.4" cy="340.0" r="5" fill="#5C3A1F"></circle><circle cx="535.3" cy="358.3" r="5" fill="#8B5E3C"></circle><circle cx="327.7" cy="523.5" r="5" fill="#5C3A1F"></circle><circle cx="369.6" cy="258.6" r="5" fill="#8B5E3C"></circle><circle cx="519.1" cy="484.6" r="5" fill="#5C3A1F"></circle><circle cx="253.6" cy="418.3" r="5" fill="#8B5E3C"></circle><circle cx="496.5" cy="286.6" r="5" fill="#5C3A1F"></circle><circle cx="405.5" cy="550.3" r="5" fill="#8B5E3C"></circle><circle cx="293.4" cy="291.9" r="5" fill="#5C3A1F"></circle><circle cx="553.0" cy="407.8" r="5" fill="#8B5E3C"></circle><circle cx="280.9" cy="498.5" r="5" fill="#5C3A1F"></circle><circle cx="421.5" cy="245.5" r="5" fill="#8B5E3C"></circle><circle cx="489.2" cy="529.5" r="5" fill="#5C3A1F"></circle><circle cx="245.4" cy="364.5" r="5" fill="#8B5E3C"></circle>

<ellipse cx="370" cy="370" rx="80" ry="35" fill="#D4A55E" opacity="0.4"></ellipse>

<g transform="translate(560 400)">
  <path d="M52.5 0.0 L53.3 9.4 L50.5 18.4 L44.4 25.6 L36.7 30.8 L29.2 34.8 L22.7 39.3 L16.2 44.5 L8.7 49.6 L0.0 52.5 L-9.2 52.1 L-17.7 48.6 L-25.2 43.6 L-32.0 38.2 L-38.6 32.4 L-44.4 25.6 L-48.1 17.5 L-49.0 8.6 L-47.5 0.0 L-45.2 -8.0 L-43.5 -15.8 L-42.2 -24.4 L-39.9 -33.5 L-35.0 -41.8 L-27.3 -47.3 L-18.0 -49.4 L-8.6 -48.9 L-0.0 -47.5 L8.2 -46.4 L16.5 -45.4 L24.8 -43.0 L32.3 -38.4 L38.0 -31.9 L42.2 -24.4 L45.8 -16.7 L49.5 -8.7 L52.5 -0.0 Z" fill="#7A9B6C"></path>
  <circle cx="-15" cy="-10" r="14" fill="#5A6A3D"></circle>
  <circle cx="12" cy="-12" r="12" fill="#5A6A3D"></circle>
  <circle cx="0" cy="15" r="14" fill="#5A6A3D"></circle>
</g>

<circle cx="240" cy="400" r="26" fill="#C86050"></circle>
<circle cx="234" cy="392" r="8" fill="#F2D9CC" opacity="0.7"></circle>

<path d="M380 240 Q 360 220 380 200 Q 410 210 415 240 Q 400 260 380 240 Z" fill="#3E5C30"></path></svg>