<svg xmlns="http://www.w3.org/2000/svg" viewBox="0 0 800 800" width="800" height="800">

<defs>
  <filter id="grain" x="0" y="0" width="100%" height="100%">
    <feTurbulence baseFrequency="0.85" numOctaves="2" stitchTiles="stitch" seed="3"></feTurbulence>
    <feColorMatrix values="0 0 0 0 0.16  0 0 0 0 0.12  0 0 0 0 0.08  0 0 0 0.05 0"></feColorMatrix>
  </filter>
  <filter id="soft" x="-10%" y="-10%" width="120%" height="120%">
    <feGaussianBlur stdDeviation="0.6"></feGaussianBlur>
  </filter>
  <radialGradient id="bowlShadow" cx="50%" cy="50%" r="50%">
    <stop offset="0%" stop-color="rgba(0,0,0,0)"></stop>
    <stop offset="85%" stop-color="rgba(0,0,0,0)"></stop>
    <stop offset="100%" stop-color="rgba(42,31,20,0.18)"></stop>
  </radialGradient>
  <radialGradient id="ambBroth" cx="50%" cy="40%" r="55%">
    <stop offset="0%" stop-color="#E8B870"></stop>
    <stop offset="100%" stop-color="#A87A3E"></stop>
  </radialGradient>
  <radialGradient id="misoBroth" cx="50%" cy="40%" r="55%">
    <stop offset="0%" stop-color="#D4A055"></stop>
    <stop offset="100%" stop-color="#7A4F1E"></stop>
  </radialGradient>
  <radialGradient id="redSauce" cx="50%" cy="40%" r="55%">
    <stop offset="0%" stop-color="#D86048"></stop>
    <stop offset="100%" stop-color="#8E2D1F"></stop>
  </radialGradient>
  <radialGradient id="lacquerSheen" cx="40%" cy="35%" r="60%">
    <stop offset="0%" stop-color="#5C3A28"></stop>
    <stop offset="100%" stop-color="#2A1810"></stop>
  </radialGradient>
</defs>
<rect width="800" height="800" fill="#F5EFE0"></rect>
<rect width="800" height="800" filter="url(#grain)"></rect>

<ellipse cx="400" cy="425.6" rx="332.8" ry="332.8" fill="rgba(42,31,20,0.12)" filter="url(#soft)"></ellipse>
<circle cx="400" cy="400" r="320" fill="#FFFDF7" stroke="#F2DDB0" stroke-width="2"></circle>
<circle cx="400" cy="400" r="275.2" fill="none" stroke="#F2DDB0" stroke-width="1.5" opacity="0.6"></circle>
<circle cx="400" cy="400" r="320" fill="url(#bowlShadow)"></circle>

<circle cx="400" cy="400" r="280" fill="#DDE4C8" opacity="0.5"></circle>

<g transform="translate(400 400) rotate(-20)">
  <path d="M-110 -10 Q -100 -50 -60 -55 L 100 -45 Q 140 -30 140 0 Q 140 30 100 45 L -60 55 Q -100 50 -110 10 Z" fill="#F2DDB0"></path>
  <path d="M-100 -8 Q -95 -45 -55 -50 L 95 -42" stroke="#E8C580" stroke-width="2" fill="none"></path>
  <line x1="-50" y1="-50" x2="-50" y2="50" stroke="#E8C580" stroke-width="2" opacity="0.5"></line>
  <line x1="20" y1="-50" x2="20" y2="50" stroke="#E8C580" stroke-width="2" opacity="0.5"></line>
  <line x1="80" y1="-44" x2="80" y2="44" stroke="#E8C580" stroke-width="2" opacity="0.5"></line>
</g>

<g transform="translate(280 460)">
  <circle r="40" fill="#7A9B6C"></circle>
  <circle cx="-12" cy="-8" r="14" fill="#7A9B6C"></circle>
  <circle cx="-12" cy="-8" r="6" fill="#DDE4C8" opacity="0.7"></circle>
  <circle cx="10" cy="-10" r="14" fill="#7A9B6C"></circle>
  <circle cx="10" cy="-10" r="6" fill="#DDE4C8" opacity="0.7"></circle>
  <circle cx="-3" cy="10" r="15" fill="#7A9B6C"></circle>
  <circle cx="-3" cy="10" r="7" fill="#DDE4C8" opacity="0.7"></circle>
</g>


  <g transform="translate(260 280) rotate(20)">
    <ellipse cx="18.0" cy="0.0" rx="14" ry="9" fill="#E8A8A0" transform="rotate(0 18.0 0.0)"></ellipse><ellipse cx="5.6" cy="17.1" rx="14" ry="9" fill="#E8A8A0" transform="rotate(72 5.6 17.1)"></ellipse><ellipse cx="-14.6" cy="10.6" rx="14" ry="9" fill="#E8A8A0" transform="rotate(144 -14.6 10.6)"></ellipse><ellipse cx="-14.6" cy="-10.6" rx="14" ry="9" fill="#E8A8A0" transform="rotate(216 -14.6 -10.6)"></ellipse><ellipse cx="5.6" cy="-17.1" rx="14" ry="9" fill="#E8A8A0" transform="rotate(288 5.6 -17.1)"></ellipse>
    <circle r="6" fill="#F5C53C"></circle>
  </g>

  <g transform="translate(510 290) rotate(0)">
    <ellipse cx="18.0" cy="0.0" rx="14" ry="9" fill="#E8A8A0" transform="rotate(0 18.0 0.0)"></ellipse><ellipse cx="5.6" cy="17.1" rx="14" ry="9" fill="#E8A8A0" transform="rotate(72 5.6 17.1)"></ellipse><ellipse cx="-14.6" cy="10.6" rx="14" ry="9" fill="#E8A8A0" transform="rotate(144 -14.6 10.6)"></ellipse><ellipse cx="-14.6" cy="-10.6" rx="14" ry="9" fill="#E8A8A0" transform="rotate(216 -14.6 -10.6)"></ellipse><ellipse cx="5.6" cy="-17.1" rx="14" ry="9" fill="#E8A8A0" transform="rotate(288 5.6 -17.1)"></ellipse>
    <circle r="6" fill="#F5C53C"></circle>
  </g>

  <g transform="translate(540 480) rotate(0)">
    <ellipse cx="18.0" cy="0.0" rx="14" ry="9" fill="#E8A8A0" transform="rotate(0 18.0 0.0)"></ellipse><ellipse cx="5.6" cy="17.1" rx="14" ry="9" fill="#E8A8A0" transform="rotate(72 5.6 17.1)"></ellipse><ellipse cx="-14.6" cy="10.6" rx="14" ry="9" fill="#E8A8A0" transform="rotate(144 -14.6 10.6)"></ellipse><ellipse cx="-14.6" cy="-10.6" rx="14" ry="9" fill="#E8A8A0" transform="rotate(216 -14.6 -10.6)"></ellipse><ellipse cx="5.6" cy="-17.1" rx="14" ry="9" fill="#E8A8A0" transform="rotate(288 5.6 -17.1)"></ellipse>
    <circle r="6" fill="#F5C53C"></circle>
  </g>

  <g transform="translate(220 380) rotate(20)">
    <ellipse cx="18.0" cy="0.0" rx="14" ry="9" fill="#E8A8A0" transform="rotate(0 18.0 0.0)"></ellipse><ellipse cx="5.6" cy="17.1" rx="14" ry="9" fill="#E8A8A0" transform="rotate(72 5.6 17.1)"></ellipse><ellipse cx="-14.6" cy="10.6" rx="14" ry="9" fill="#E8A8A0" transform="rotate(144 -14.6 10.6)"></ellipse><ellipse cx="-14.6" cy="-10.6" rx="14" ry="9" fill="#E8A8A0" transform="rotate(216 -14.6 -10.6)"></ellipse><ellipse cx="5.6" cy="-17.1" rx="14" ry="9" fill="#E8A8A0" transform="rotate(288 5.6 -17.1)"></ellipse>
    <circle r="6" fill="#F5C53C"></circle>
  </g>


<g transform="translate(450 360)">
  <path d="M0 0 Q -10 -15 0 -25 Q 12 -18 10 -2 Z" fill="#7A9B6C"></path>
  <path d="M0 0 L 0 -22" stroke="#5A6A3D" stroke-width="1" fill="none"></path>
</g></svg>