<svg xmlns="http://www.w3.org/2000/svg" viewBox="0 0 800 800" width="800" height="800">

<defs>
  <filter id="grain" x="0" y="0" width="100%" height="100%">
    <feTurbulence baseFrequency="0.85" numOctaves="2" stitchTiles="stitch" seed="3"></feTurbulence>
    <feColorMatrix values="0 0 0 0 0.16  0 0 0 0 0.12  0 0 0 0 0.08  0 0 0 0.05 0"></feColorMatrix>
  </filter>
  <filter id="soft" x="-10%" y="-10%" width="120%" height="120%">
    <feGaussianBlur stdDeviation="0.6"></feGaussianBlur>
  </filter>
  <radialGradient id="bowlShadow" cx="50%" cy="50%" r="50%">
    <stop offset="0%" stop-color="rgba(0,0,0,0)"></stop>
    <stop offset="85%" stop-color="rgba(0,0,0,0)"></stop>
    <stop offset="100%" stop-color="rgba(42,31,20,0.18)"></stop>
  </radialGradient>
  <radialGradient id="ambBroth" cx="50%" cy="40%" r="55%">
    <stop offset="0%" stop-color="#E8B870"></stop>
    <stop offset="100%" stop-color="#A87A3E"></stop>
  </radialGradient>
  <radialGradient id="misoBroth" cx="50%" cy="40%" r="55%">
    <stop offset="0%" stop-color="#D4A055"></stop>
    <stop offset="100%" stop-color="#7A4F1E"></stop>
  </radialGradient>
  <radialGradient id="redSauce" cx="50%" cy="40%" r="55%">
    <stop offset="0%" stop-color="#D86048"></stop>
    <stop offset="100%" stop-color="#8E2D1F"></stop>
  </radialGradient>
  <radialGradient id="lacquerSheen" cx="40%" cy="35%" r="60%">
    <stop offset="0%" stop-color="#5C3A28"></stop>
    <stop offset="100%" stop-color="#2A1810"></stop>
  </radialGradient>
</defs>
<rect width="800" height="800" fill="#F5EFE0"></rect>
<rect width="800" height="800" filter="url(#grain)"></rect>
<ellipse cx="400" cy="435.6" rx="332.8" ry="332.8" fill="rgba(42,31,20,0.12)" filter="url(#soft)"></ellipse>

<circle cx="400" cy="400" r="320" fill="#A88B5E"></circle>
<circle cx="400" cy="400" r="305" fill="#D4B584"></circle>

<g stroke="#A88B5E" stroke-width="1.2" opacity="0.45" fill="none">
  <line x1="640.0" y1="400.0" x2="705.0" y2="400.0"></line><line x1="638.7" y1="425.1" x2="703.3" y2="431.9"></line><line x1="634.8" y1="449.9" x2="698.3" y2="463.4"></line><line x1="628.3" y1="474.2" x2="690.1" y2="494.3"></line><line x1="619.3" y1="497.6" x2="678.6" y2="524.1"></line><line x1="607.8" y1="520.0" x2="664.1" y2="552.5"></line><line x1="594.2" y1="541.1" x2="646.8" y2="579.3"></line><line x1="578.4" y1="560.6" x2="626.7" y2="604.1"></line><line x1="560.6" y1="578.4" x2="604.1" y2="626.7"></line><line x1="541.1" y1="594.2" x2="579.3" y2="646.8"></line><line x1="520.0" y1="607.8" x2="552.5" y2="664.1"></line><line x1="497.6" y1="619.3" x2="524.1" y2="678.6"></line><line x1="474.2" y1="628.3" x2="494.3" y2="690.1"></line><line x1="449.9" y1="634.8" x2="463.4" y2="698.3"></line><line x1="425.1" y1="638.7" x2="431.9" y2="703.3"></line><line x1="400.0" y1="640.0" x2="400.0" y2="705.0"></line><line x1="374.9" y1="638.7" x2="368.1" y2="703.3"></line><line x1="350.1" y1="634.8" x2="336.6" y2="698.3"></line><line x1="325.8" y1="628.3" x2="305.7" y2="690.1"></line><line x1="302.4" y1="619.3" x2="275.9" y2="678.6"></line><line x1="280.0" y1="607.8" x2="247.5" y2="664.1"></line><line x1="258.9" y1="594.2" x2="220.7" y2="646.8"></line><line x1="239.4" y1="578.4" x2="195.9" y2="626.7"></line><line x1="221.6" y1="560.6" x2="173.3" y2="604.1"></line><line x1="205.8" y1="541.1" x2="153.2" y2="579.3"></line><line x1="192.2" y1="520.0" x2="135.9" y2="552.5"></line><line x1="180.7" y1="497.6" x2="121.4" y2="524.1"></line><line x1="171.7" y1="474.2" x2="109.9" y2="494.3"></line><line x1="165.2" y1="449.9" x2="101.7" y2="463.4"></line><line x1="161.3" y1="425.1" x2="96.7" y2="431.9"></line><line x1="160.0" y1="400.0" x2="95.0" y2="400.0"></line><line x1="161.3" y1="374.9" x2="96.7" y2="368.1"></line><line x1="165.2" y1="350.1" x2="101.7" y2="336.6"></line><line x1="171.7" y1="325.8" x2="109.9" y2="305.7"></line><line x1="180.7" y1="302.4" x2="121.4" y2="275.9"></line><line x1="192.2" y1="280.0" x2="135.9" y2="247.5"></line><line x1="205.8" y1="258.9" x2="153.2" y2="220.7"></line><line x1="221.6" y1="239.4" x2="173.3" y2="195.9"></line><line x1="239.4" y1="221.6" x2="195.9" y2="173.3"></line><line x1="258.9" y1="205.8" x2="220.7" y2="153.2"></line><line x1="280.0" y1="192.2" x2="247.5" y2="135.9"></line><line x1="302.4" y1="180.7" x2="275.9" y2="121.4"></line><line x1="325.8" y1="171.7" x2="305.7" y2="109.9"></line><line x1="350.1" y1="165.2" x2="336.6" y2="101.7"></line><line x1="374.9" y1="161.3" x2="368.1" y2="96.7"></line><line x1="400.0" y1="160.0" x2="400.0" y2="95.0"></line><line x1="425.1" y1="161.3" x2="431.9" y2="96.7"></line><line x1="449.9" y1="165.2" x2="463.4" y2="101.7"></line><line x1="474.2" y1="171.7" x2="494.3" y2="109.9"></line><line x1="497.6" y1="180.7" x2="524.1" y2="121.4"></line><line x1="520.0" y1="192.2" x2="552.5" y2="135.9"></line><line x1="541.1" y1="205.8" x2="579.3" y2="153.2"></line><line x1="560.6" y1="221.6" x2="604.1" y2="173.3"></line><line x1="578.4" y1="239.4" x2="626.7" y2="195.9"></line><line x1="594.2" y1="258.9" x2="646.8" y2="220.7"></line><line x1="607.8" y1="280.0" x2="664.1" y2="247.5"></line><line x1="619.3" y1="302.4" x2="678.6" y2="275.9"></line><line x1="628.3" y1="325.8" x2="690.1" y2="305.7"></line><line x1="634.8" y1="350.1" x2="698.3" y2="336.6"></line><line x1="638.7" y1="374.9" x2="703.3" y2="368.1"></line>
</g>

<circle cx="400" cy="400" r="240" fill="#A88B5E"></circle>
<circle cx="400" cy="400" r="234" fill="#F8F2E0" opacity="0.4"></circle>

<g>
  
    <ellipse cx="330" cy="348" rx="78" ry="22" fill="rgba(42,31,20,0.15)"></ellipse>
    <path d="M402.1 340.0 L401.4 352.6 L400.0 365.5 L396.7 378.5 L390.4 390.6 L380.6 400.3 L368.4 406.5 L355.4 409.8 L342.6 411.4 L330.0 412.3 L317.3 412.2 L304.4 410.3 L292.3 405.4 L281.7 397.6 L272.9 387.9 L265.5 377.2 L259.2 365.8 L254.3 353.3 L252.1 340.0 L253.7 326.5 L259.0 314.2 L266.8 303.5 L275.4 294.2 L284.2 285.4 L293.4 276.6 L304.1 268.9 L316.5 263.7 L330.0 262.3 L343.3 264.5 L355.7 269.3 L367.3 275.5 L378.1 282.7 L387.8 291.5 L395.4 302.2 L400.1 314.5 L402.0 327.3 L402.1 340.0 Z" fill="#F8F2E0" stroke="#F2DDB0" stroke-width="1.5"></path>
    <path d="M387.8 340.0 L387.2 350.1 L386.0 360.4 L383.3 370.8 L378.1 380.4 L370.4 388.1 L360.7 393.2 L350.3 395.9 L340.1 397.2 L330.0 397.9 L319.8 397.9 L309.5 396.2 L299.8 392.3 L291.3 386.1 L284.3 378.4 L278.4 369.8 L273.4 360.6 L269.5 350.7 L267.8 340.0 L269.1 329.3 L273.2 319.3 L279.4 310.8 L286.2 303.3 L293.2 296.2 L300.7 289.2 L309.3 283.1 L319.3 279.1 L330.0 277.9 L340.6 279.7 L350.6 283.5 L359.8 288.3 L368.5 294.2 L376.2 301.2 L382.3 309.8 L386.1 319.6 L387.7 329.8 L387.8 340.0 Z" fill="#F8F2E0" opacity="0.5"></path>
    <path d="M330 318 Q 333 304, 330 290" stroke="#F2DDB0" stroke-width="1.5" fill="none"></path><path d="M351.2132034355964 324.44365081389594 Q 368.3553390593274 314.5441558772843, 379.49747468305833 304.6446609406726" stroke="#F2DDB0" stroke-width="1.5" fill="none"></path><path d="M360 340 Q 383 340, 400 340" stroke="#F2DDB0" stroke-width="1.5" fill="none"></path><path d="M351.2132034355964 355.55634918610406 Q 368.3553390593274 365.4558441227157, 379.49747468305833 375.3553390593274" stroke="#F2DDB0" stroke-width="1.5" fill="none"></path><path d="M330 362 Q 333 376, 330 390" stroke="#F2DDB0" stroke-width="1.5" fill="none"></path><path d="M308.7867965644036 355.55634918610406 Q 297.6446609406726 365.4558441227157, 280.50252531694167 375.3553390593274" stroke="#F2DDB0" stroke-width="1.5" fill="none"></path><path d="M300 340 Q 283 340, 260 340" stroke="#F2DDB0" stroke-width="1.5" fill="none"></path><path d="M308.7867965644036 324.44365081389594 Q 297.6446609406726 314.5441558772843, 280.50252531694167 304.6446609406726" stroke="#F2DDB0" stroke-width="1.5" fill="none"></path>
    <circle cx="330" cy="340" r="6" fill="#D4A55E"></circle>
  
    <ellipse cx="470" cy="348" rx="78" ry="22" fill="rgba(42,31,20,0.15)"></ellipse>
    <path d="M542.3 340.0 L543.6 353.0 L542.3 366.3 L537.4 378.9 L529.1 389.6 L518.7 398.0 L507.3 404.7 L495.5 410.1 L483.1 414.1 L470.0 415.7 L457.0 414.0 L444.8 409.3 L433.8 402.6 L423.6 395.2 L413.7 387.3 L404.1 378.0 L396.4 366.8 L392.2 353.7 L392.3 340.0 L395.9 326.9 L401.4 315.0 L407.5 303.9 L414.2 293.2 L422.3 283.1 L432.3 274.8 L444.2 269.2 L457.0 266.4 L470.0 265.7 L483.0 266.2 L496.1 268.3 L508.8 272.7 L520.1 280.3 L528.6 290.9 L534.0 303.0 L537.4 315.5 L540.0 327.7 L542.3 340.0 Z" fill="#F8F2E0" stroke="#F2DDB0" stroke-width="1.5"></path>
    <path d="M528.0 340.0 L528.9 350.4 L527.8 361.0 L523.8 371.1 L517.2 379.6 L508.9 386.4 L499.9 391.8 L490.4 396.1 L480.5 399.3 L470.0 400.5 L459.6 399.2 L449.8 395.5 L441.0 390.2 L432.8 384.3 L424.9 377.9 L417.4 370.4 L411.3 361.4 L408.0 350.9 L408.0 340.0 L410.7 329.5 L415.0 320.0 L419.9 311.1 L425.3 302.5 L431.8 294.5 L439.9 287.8 L449.4 283.4 L459.6 281.1 L470.0 280.5 L480.4 281.0 L490.9 282.7 L501.0 286.3 L510.0 292.4 L516.8 300.7 L521.3 310.4 L524.1 320.3 L526.2 330.1 L528.0 340.0 Z" fill="#F8F2E0" opacity="0.5"></path>
    <path d="M470 318 Q 473 304, 470 290" stroke="#F2DDB0" stroke-width="1.5" fill="none"></path><path d="M491.2132034355964 324.44365081389594 Q 508.3553390593273 314.5441558772843, 519.4974746830583 304.6446609406726" stroke="#F2DDB0" stroke-width="1.5" fill="none"></path><path d="M500 340 Q 523 340, 540 340" stroke="#F2DDB0" stroke-width="1.5" fill="none"></path><path d="M491.2132034355964 355.55634918610406 Q 508.3553390593273 365.4558441227157, 519.4974746830583 375.3553390593274" stroke="#F2DDB0" stroke-width="1.5" fill="none"></path><path d="M470 362 Q 473 376, 470 390" stroke="#F2DDB0" stroke-width="1.5" fill="none"></path><path d="M448.7867965644036 355.55634918610406 Q 437.6446609406726 365.4558441227157, 420.50252531694167 375.3553390593274" stroke="#F2DDB0" stroke-width="1.5" fill="none"></path><path d="M440 340 Q 423 340, 400 340" stroke="#F2DDB0" stroke-width="1.5" fill="none"></path><path d="M448.7867965644036 324.44365081389594 Q 437.6446609406726 314.5441558772843, 420.50252531694167 304.6446609406726" stroke="#F2DDB0" stroke-width="1.5" fill="none"></path>
    <circle cx="470" cy="340" r="6" fill="#D4A55E"></circle>
  
    <ellipse cx="400" cy="468" rx="78" ry="22" fill="rgba(42,31,20,0.15)"></ellipse>
    <path d="M475.4 460.0 L476.0 473.4 L473.5 486.8 L467.3 498.9 L457.9 508.6 L446.9 515.9 L435.6 521.7 L424.4 527.1 L412.7 532.1 L400.0 535.6 L386.6 536.1 L373.5 532.7 L361.8 526.1 L351.7 517.6 L342.7 508.1 L334.8 497.6 L328.7 486.0 L325.4 473.2 L325.4 460.0 L328.2 447.3 L332.6 435.5 L337.4 423.9 L343.0 412.2 L350.5 401.0 L360.6 391.8 L373.1 386.1 L386.7 384.4 L400.0 385.6 L412.6 388.3 L424.8 391.7 L436.8 396.2 L448.1 402.7 L457.6 411.7 L464.7 422.6 L469.6 434.7 L473.1 447.1 L475.4 460.0 Z" fill="#F8F2E0" stroke="#F2DDB0" stroke-width="1.5"></path>
    <path d="M460.3 460.0 L460.7 470.7 L458.7 481.3 L453.7 491.0 L446.3 498.9 L437.6 504.8 L428.6 509.5 L419.6 513.8 L410.2 517.8 L400.0 520.5 L389.3 520.7 L378.9 518.0 L369.5 512.8 L361.3 506.1 L354.2 498.5 L347.9 490.1 L343.0 480.8 L340.3 470.5 L340.3 460.0 L342.5 449.9 L345.9 440.3 L349.8 431.0 L354.4 421.7 L360.5 412.9 L368.6 405.6 L378.5 401.1 L389.3 399.6 L400.0 400.5 L410.1 402.6 L419.9 405.3 L429.5 408.9 L438.5 414.1 L446.1 421.3 L451.8 430.1 L455.7 439.7 L458.5 449.7 L460.3 460.0 Z" fill="#F8F2E0" opacity="0.5"></path>
    <path d="M400 438 Q 403 424, 400 410" stroke="#F2DDB0" stroke-width="1.5" fill="none"></path><path d="M421.2132034355964 444.44365081389594 Q 438.3553390593274 434.5441558772843, 449.49747468305833 424.6446609406726" stroke="#F2DDB0" stroke-width="1.5" fill="none"></path><path d="M430 460 Q 453 460, 470 460" stroke="#F2DDB0" stroke-width="1.5" fill="none"></path><path d="M421.2132034355964 475.55634918610406 Q 438.3553390593274 485.4558441227157, 449.49747468305833 495.3553390593274" stroke="#F2DDB0" stroke-width="1.5" fill="none"></path><path d="M400 482 Q 403 496, 400 510" stroke="#F2DDB0" stroke-width="1.5" fill="none"></path><path d="M378.7867965644036 475.55634918610406 Q 367.6446609406726 485.4558441227157, 350.50252531694167 495.3553390593274" stroke="#F2DDB0" stroke-width="1.5" fill="none"></path><path d="M370 460 Q 353 460, 330 460" stroke="#F2DDB0" stroke-width="1.5" fill="none"></path><path d="M378.7867965644036 444.44365081389594 Q 367.6446609406726 434.5441558772843, 350.50252531694167 424.6446609406726" stroke="#F2DDB0" stroke-width="1.5" fill="none"></path>
    <circle cx="400" cy="460" r="6" fill="#D4A55E"></circle>
  
</g>

<path d="M260 200 Q 250 170, 270 150 T 280 100" stroke="#F8F2E0" stroke-width="6" fill="none" stroke-linecap="round" opacity="0.7"></path>
<path d="M530 200 Q 540 170, 520 150 T 510 100" stroke="#F8F2E0" stroke-width="6" fill="none" stroke-linecap="round" opacity="0.7"></path></svg>