<svg xmlns="http://www.w3.org/2000/svg" viewBox="0 0 800 800" width="800" height="800">

<defs>
  <filter id="grain" x="0" y="0" width="100%" height="100%">
    <feTurbulence baseFrequency="0.85" numOctaves="2" stitchTiles="stitch" seed="3"></feTurbulence>
    <feColorMatrix values="0 0 0 0 0.16  0 0 0 0 0.12  0 0 0 0 0.08  0 0 0 0.05 0"></feColorMatrix>
  </filter>
  <filter id="soft" x="-10%" y="-10%" width="120%" height="120%">
    <feGaussianBlur stdDeviation="0.6"></feGaussianBlur>
  </filter>
  <radialGradient id="bowlShadow" cx="50%" cy="50%" r="50%">
    <stop offset="0%" stop-color="rgba(0,0,0,0)"></stop>
    <stop offset="85%" stop-color="rgba(0,0,0,0)"></stop>
    <stop offset="100%" stop-color="rgba(42,31,20,0.18)"></stop>
  </radialGradient>
  <radialGradient id="ambBroth" cx="50%" cy="40%" r="55%">
    <stop offset="0%" stop-color="#E8B870"></stop>
    <stop offset="100%" stop-color="#A87A3E"></stop>
  </radialGradient>
  <radialGradient id="misoBroth" cx="50%" cy="40%" r="55%">
    <stop offset="0%" stop-color="#D4A055"></stop>
    <stop offset="100%" stop-color="#7A4F1E"></stop>
  </radialGradient>
  <radialGradient id="redSauce" cx="50%" cy="40%" r="55%">
    <stop offset="0%" stop-color="#D86048"></stop>
    <stop offset="100%" stop-color="#8E2D1F"></stop>
  </radialGradient>
  <radialGradient id="lacquerSheen" cx="40%" cy="35%" r="60%">
    <stop offset="0%" stop-color="#5C3A28"></stop>
    <stop offset="100%" stop-color="#2A1810"></stop>
  </radialGradient>
</defs>
<rect width="800" height="800" fill="#F5EFE0"></rect>
<rect width="800" height="800" filter="url(#grain)"></rect>

<ellipse cx="400" cy="426.4" rx="343.2" ry="343.2" fill="rgba(42,31,20,0.12)" filter="url(#soft)"></ellipse>
<circle cx="400" cy="400" r="330" fill="#F5EFE0" stroke="#F2DDB0" stroke-width="2"></circle>
<circle cx="400" cy="400" r="283.8" fill="none" stroke="#F2DDB0" stroke-width="1.5" opacity="0.6"></circle>
<circle cx="400" cy="400" r="330" fill="url(#bowlShadow)"></circle>

<circle cx="400" cy="400" r="295" fill="#DDE4C8" opacity="0.25"></circle>
<circle cx="400" cy="400" r="270" fill="#F5EFE0" opacity="0.4"></circle>

<g opacity="0.55">
  <rect x="300" y="310" width="55" height="55" rx="6" fill="#F8F2E0" stroke="#DDE4C8" stroke-width="2" transform="rotate(-12 327 337)"></rect>
  <rect x="312" y="320" width="35" height="35" rx="3" fill="#F5EFE0" opacity="0.6" transform="rotate(-12 327 337)"></rect>
  <rect x="430" y="320" width="48" height="48" rx="5" fill="#F8F2E0" stroke="#DDE4C8" stroke-width="2" transform="rotate(20 454 344)"></rect>
  <rect x="438" y="330" width="32" height="32" rx="3" fill="#F5EFE0" opacity="0.6" transform="rotate(20 454 344)"></rect>
</g>

<g fill="none" stroke="#F8F2E0" stroke-width="5" stroke-linecap="round">
  <path d="M260 460 Q 320 420 400 430 Q 480 440 540 470"></path>
  <path d="M280 450 Q 330 410 410 420 Q 490 425 530 450"></path>
  <path d="M300 440 Q 350 405 420 410 Q 480 415 520 435"></path>
  <path d="M310 470 Q 360 440 420 445 Q 480 450 520 475"></path>
  <path d="M290 480 Q 340 455 410 460 Q 470 465 520 480"></path>
</g>
<g fill="none" stroke="#F2DDB0" stroke-width="2" stroke-linecap="round" opacity="0.6">
  <path d="M270 465 Q 330 425 410 435"></path>
  <path d="M310 445 Q 360 415 420 420"></path>
</g>

<circle cx="280" cy="500" r="28" fill="#DDE4C8" stroke="#7A9B6C" stroke-width="2"></circle>
<circle cx="280" cy="500" r="20" fill="#7A9B6C" opacity="0.3"></circle>
<circle cx="510" cy="510" r="26" fill="#DDE4C8" stroke="#7A9B6C" stroke-width="2"></circle>
<circle cx="510" cy="510" r="18" fill="#7A9B6C" opacity="0.3"></circle>

<path d="M400 540 L 460 530 L 450 580 Q 420 590, 400 580 Z" fill="#C86050"></path>

<path d="M520 300 Q 540 280 555 290 Q 555 310 535 320 Q 515 318 520 300 Z" fill="#5A6A3D"></path>

<g stroke="#D4A55E" stroke-width="2.5" fill="none" stroke-linecap="round">
  <path d="M380 320 Q 390 305 405 310"></path>
  <path d="M395 318 Q 405 305 420 313"></path>
</g></svg>